<?xml version="1.0" encoding="UTF-8" standalone="no"?>
<svg
   xmlns:dc="http://purl.org/dc/elements/1.1/"
   xmlns:cc="http://creativecommons.org/ns#"
   xmlns:rdf="http://www.w3.org/1999/02/22-rdf-syntax-ns#"
   xmlns:svg="http://www.w3.org/2000/svg"
   xmlns="http://www.w3.org/2000/svg"
   viewBox="0 0 150 150"
   height="150"
   width="150"
   xml:space="preserve"
   version="1.1"
   id="svg2"><metadata
     id="metadata8"><rdf:RDF><cc:Work
         rdf:about=""><dc:format>image/svg+xml</dc:format><dc:type
           rdf:resource="http://purl.org/dc/dcmitype/StillImage" /><dc:title></dc:title></cc:Work></rdf:RDF></metadata><defs
     id="defs6" /><g
     transform="matrix(1.25,0,0,-1.25,0,150)"
     id="g10"><g
       transform="matrix(0.00838084,0,0,0.00838084,-2.2718803,-0.6764879)"
       id="g12"><path
         id="path14"
         style="fill:#39aa9b;fill-opacity:1;fill-rule:nonzero;stroke:none"
         d="m 838.574,7335 c 0,3126.9 2220.836,5744.4 5167.776,6359.3 l 0,481.4 C 2797.36,13553.6 366.75,10723.1 366.75,7335 c 0,-2367.57 1187.09,-4462.8 2997.27,-5722.73 182.62,-127.07 371.57,-245.65 566.37,-355.13 l 0,7714.56 549.32,0 0,-203.83 c 0,-181.27 79.26,-283.22 283.08,-283.22 203.89,0 283.24,101.95 283.24,283.22 l 0,770.2 -2797.69,0 0,-770.2 c 0,-181.27 79.34,-283.22 283.21,-283.22 203.9,0 283.15,101.95 283.15,283.22 l 0,203.83 549.32,0 0,-6772.69 C 1829.29,3388.3 838.574,5247.58 838.574,7335" /><path
         id="path16"
         style="fill:#50aae3;fill-opacity:1;fill-rule:nonzero;stroke:none"
         d="m 7335,14303.3 c -257.61,0 -511.82,-14.5 -762.29,-41.9 -191.26,-20.9 -380.09,-49.6 -566.36,-85.7 l 0,-8205.49 c 0,-152.81 5.66,-164.22 79.34,-288.78 l 198.23,-345.49 c 96.22,-169.86 147.15,-203.81 345.47,-203.81 l 1551.65,0 c 198.11,0 249.18,33.95 345.49,203.81 l 198.11,345.49 c 73.76,124.56 79.47,135.97 79.47,288.78 l 0,3284.6 c 0,181.25 -79.47,283.26 -283.29,283.26 -203.81,0 -283.14,-102.01 -283.14,-283.26 l 0,-3284.6 -152.95,-271.73 -243.48,0 -152.88,271.73 0,1783.84 c 0,175.59 -79.26,334.27 -283.14,334.27 -203.96,0 -283.22,-158.68 -283.22,-334.27 l 0,-1783.84 -152.81,-271.73 -243.64,0 -152.85,271.73 0,7814.99 c 250.2,29.4 504.34,46.2 762.29,46.2 3582.1,0 6496.4,-2914.3 6496.4,-6496.4 0,-565.13 -72.9,-1113.43 -209.1,-1636.52 l 486.3,0 c 126.9,525.06 194.7,1073.02 194.7,1636.52 0,3842.3 -3126,6968.3 -6968.3,6968.3" /><path
         id="path18"
         style="fill:#3fbb6a;fill-opacity:1;fill-rule:nonzero;stroke:none"
         d="m 13622.3,5698.48 -2407.1,0 c -254.8,0 -311.4,16.91 -424.7,249.19 l -481.3,979.69 c -68,135.91 -119.1,232.08 -119.1,390.73 0,175.43 45.3,277.44 119.1,430.46 l 492.7,985.21 c 107.5,215.21 147.2,237.94 390.7,237.94 l 945.8,0 c 130.3,0 283.1,79.27 283.1,283.11 0,215.21 -158.5,283.26 -283.1,283.26 l -962.8,0 c -436.1,0 -679.6,-153 -872,-543.78 L 9782.51,7946.71 C 9669.3,7720.16 9624,7567.27 9624,7318.09 c 0,-220.87 56.5,-402.14 152.81,-594.61 l 521.09,-1053.39 c 181.2,-368.11 424.7,-537.96 849.5,-537.96 l 2298.7,0 C 12541.9,2631.09 10144,838.637 7335,838.637 c -1247.76,0 -2413.81,354.383 -3404.61,966.593 l 0,-548.09 C 4937.81,690.508 6099.2,366.684 7335,366.684 c 3072.8,0 5687.1,1999.396 6611.1,4765.446 62,185.41 116.3,374.42 162.5,566.35 l -486.3,0" /></g></g></svg>