<?xml version="1.0" encoding="UTF-8"?><svg id="Layer_1" xmlns="http://www.w3.org/2000/svg" viewBox="0 0 400 400"><defs><style>.cls-1{fill:#000;stroke-width:0px;}</style></defs><path class="cls-1" d="M200,17.02c100.9,0,182.98,82.09,182.98,182.98s-82.09,182.98-182.98,182.98S17.02,300.9,17.02,200,99.1,17.02,200,17.02M200,12.75C96.58,12.75,12.75,96.58,12.75,200s83.83,187.25,187.25,187.25,187.25-83.83,187.25-187.25S303.42,12.75,200,12.75h0Z"/><path class="cls-1" d="M154.96,344.16l8.59,3.1-.25.69c-.56,1.56-1.25,2.88-2.05,3.95-.76.98-1.74,1.8-2.94,2.47-2.71,1.48-5.56,1.67-8.54.6-2.91-1.05-5.02-3-6.34-5.85-1.31-2.86-1.43-5.76-.37-8.71,1.09-3.02,3.07-5.19,5.93-6.53,2.87-1.35,5.82-1.47,8.84-.38,1.62.59,3.02,1.47,4.19,2.64,1.11,1.15,2.04,2.71,2.81,4.67l-3.01,1.33c-.88-2.89-2.55-4.77-5-5.66-2.2-.8-4.32-.7-6.35.28-2.03.95-3.45,2.55-4.26,4.79-.83,2.32-.69,4.52.43,6.62,1.05,1.95,2.48,3.25,4.29,3.91,1.54.56,3.12.54,4.72-.06,1.61-.61,2.75-1.61,3.42-3.03l-5.18-1.87,1.06-2.95Z"/><path class="cls-1" d="M173.34,338.29l-3.84,18.57,6.36,1.32-.64,3.07-9.63-1.99,4.47-21.64,3.27.68Z"/><path class="cls-1" d="M178.84,350.92c.19-3.1,1.48-5.7,3.89-7.79,2.4-2.09,5.19-3.04,8.37-2.86,3.14.19,5.77,1.47,7.89,3.86,2.12,2.38,3.09,5.15,2.9,8.3-.19,3.17-1.48,5.79-3.88,7.87-2.41,2.08-5.22,3.03-8.44,2.84-2.85-.17-5.35-1.31-7.49-3.42-2.37-2.33-3.44-5.26-3.23-8.8ZM182.2,351.16c-.14,2.44.55,4.49,2.1,6.16,1.53,1.67,3.37,2.57,5.5,2.69,2.32.14,4.32-.54,6-2.05,1.69-1.52,2.6-3.45,2.74-5.77.14-2.35-.53-4.37-2-6.05-1.47-1.69-3.35-2.61-5.66-2.75-2.29-.14-4.28.55-5.96,2.05-1.68,1.48-2.58,3.39-2.72,5.71Z"/><path class="cls-1" d="M207.58,362.8l-2.4-21.97,3.3-.36c1.47-.16,2.65-.17,3.55-.04.91.13,1.7.43,2.36.91.68.49,1.24,1.14,1.7,1.93.46.8.74,1.64.83,2.5.17,1.58-.28,2.97-1.37,4.2,1.21.27,2.2.87,2.99,1.79.79.91,1.26,2.02,1.4,3.33.19,1.72-.26,3.23-1.34,4.55-.65.81-1.42,1.41-2.29,1.79-.97.38-2.2.66-3.7.82l-5.02.55ZM209.52,349.9l1.04-.11c1.23-.13,2.11-.5,2.62-1.11.51-.61.72-1.44.6-2.5-.11-1.04-.49-1.79-1.14-2.26-.65-.47-1.53-.65-2.65-.52l-1.17.13.7,6.39ZM210.55,359.32l2.05-.22c1.5-.16,2.57-.58,3.21-1.24.67-.72.95-1.56.84-2.54-.1-.95-.55-1.71-1.33-2.27-.77-.56-2.04-.74-3.82-.55l-1.68.19.73,6.64Z"/><path class="cls-1" d="M237.52,351.91l-9.15,2.4-1.02,5.82-3.47.91,4.61-25.49,16.17,20.03-3.53.93-3.61-4.6ZM235.41,349.22l-5.08-6.44-1.41,8.14,6.49-1.7Z"/><path class="cls-1" d="M243.45,332.02l7.21,17.54,6.01-2.47,1.19,2.9-9.09,3.74-8.4-20.44,3.08-1.27Z"/><circle class="cls-1" cx="349.27" cy="231.62" r="5.5" transform="translate(-51.61 109.41) rotate(-16.6)"/><circle class="cls-1" cx="50.16" cy="231.81" r="5.5" transform="translate(-64.12 23.98) rotate(-16.6)"/><line class="cls-1" x1="241.09" y1="271.73" x2="241.23" y2="269.51"/><path class="cls-1" d="M41.07,188.95l18.79.94-.31,6.26-18.79-.93-.26,5.15-5.31-.26.82-16.56,5.31.26-.26,5.15Z"/><path class="cls-1" d="M44.15,166.34l-1.25,7.35,3.98.67,1.18-6.94,5.24.89-1.18,6.94,4.1.7,1.25-7.35,5.24.89-2.3,13.53-23.79-4.03,2.29-13.53,5.24.89Z"/><path class="cls-1" d="M53.23,144.81c-2.12.86-3.5,2.31-4.13,4.35-.28.9-.37,1.78-.28,2.64.09.86.33,1.66.72,2.38.39.72.92,1.36,1.6,1.92.68.56,1.46.97,2.36,1.25.92.28,1.81.39,2.68.31.87-.08,1.68-.3,2.42-.69.74-.38,1.4-.9,1.96-1.55.56-.65.98-1.42,1.25-2.29.59-1.91.31-3.89-.84-5.92l7.09,2.2.02.68c.04,1.02.02,1.95-.08,2.79s-.26,1.65-.5,2.42c-.49,1.59-1.27,3.02-2.32,4.29-1.05,1.27-2.3,2.29-3.73,3.06-1.43.77-3.01,1.26-4.71,1.47-1.71.21-3.45.04-5.22-.51-1.77-.55-3.3-1.38-4.57-2.5-1.27-1.12-2.27-2.4-3-3.84-.73-1.44-1.16-2.99-1.31-4.64-.15-1.65.03-3.29.53-4.89.28-.92.66-1.79,1.13-2.62.47-.83,1.06-1.66,1.77-2.52l7.15,2.22Z"/><path class="cls-1" d="M59.45,133.78l4.09-8.08-8.31-4.2,2.83-5.6,21.53,10.89-2.83,5.6-8.88-4.49-4.09,8.08,8.88,4.49-2.83,5.6-21.53-10.89,2.83-5.6,8.31,4.2Z"/><path class="cls-1" d="M71.97,95.73l14.23,7.59-7.9-14.37,3.4-3.65,14.89,6.88-8.56-13.67,4.47-4.8,12.74,21.72-4.37,4.68-13.46-6.08,7,13-4.36,4.68-22.56-11.19,4.47-4.8Z"/><path class="cls-1" d="M103.26,80.98c-1.01-1.48-1.68-3.04-2.01-4.69-.33-1.65-.34-3.28-.02-4.9.32-1.61.96-3.15,1.94-4.61.98-1.46,2.28-2.74,3.9-3.85,1.6-1.1,3.26-1.84,4.99-2.24,1.72-.39,3.4-.45,5.03-.17,1.63.28,3.15.87,4.57,1.77,1.42.9,2.64,2.09,3.65,3.57s1.68,3.04,2.01,4.69c.33,1.65.33,3.28,0,4.9-.32,1.62-.98,3.16-1.97,4.63-.99,1.47-2.28,2.75-3.88,3.84-1.62,1.11-3.29,1.86-5,2.24-1.71.39-3.38.44-5,.15-1.62-.29-3.14-.88-4.56-1.78-1.42-.9-2.64-2.09-3.65-3.57ZM108.67,77.27c.54.79,1.19,1.42,1.95,1.88.76.46,1.56.77,2.41.91.85.14,1.7.12,2.57-.07.86-.19,1.67-.55,2.43-1.07.76-.52,1.38-1.15,1.87-1.88.49-.74.83-1.53,1.01-2.38s.19-1.71.03-2.58c-.16-.87-.51-1.71-1.05-2.5-.54-.79-1.19-1.42-1.95-1.88-.76-.46-1.56-.76-2.42-.9-.86-.14-1.72-.11-2.58.08-.86.19-1.68.55-2.43,1.06-.76.52-1.38,1.15-1.87,1.89-.49.74-.82,1.53-.99,2.37-.17.84-.18,1.7-.02,2.57.16.87.51,1.71,1.05,2.5Z"/><path class="cls-1" d="M152.92,66.6l-7.11,3.22-9.28-5.99,3.82,8.46-5.71,2.58-9.94-21.98,8.89-4.02c1.22-.55,2.37-.86,3.45-.91,1.08-.05,2.05.1,2.93.45.87.36,1.65.87,2.32,1.55.67.68,1.22,1.49,1.64,2.42.76,1.67.97,3.21.63,4.61-.34,1.4-1.21,2.65-2.62,3.73l10.98,5.89ZM134.85,60.12l1.08-.49c1.13-.51,1.89-1.13,2.28-1.87.39-.74.39-1.55,0-2.42-.4-.87-1-1.41-1.81-1.6-.81-.19-1.78-.04-2.91.47l-1.08.49,2.45,5.42Z"/><path class="cls-1" d="M156.61,50.9l4.79-11.6,7.48-2.02-6.26,13.52,13.41,9.54-7.85,2.12-10.6-7.98,2.73,10.1-6.06,1.63-6.29-23.29,6.06-1.63,2.59,9.61Z"/><path class="cls-1" d="M189.08,40.12l-7.4.89.48,4,6.99-.84.64,5.27-6.99.84.5,4.13,7.4-.89.64,5.27-13.63,1.64-2.89-23.95,13.63-1.64.64,5.27Z"/><path class="cls-1" d="M214.76,58.83l-7.81-.13-5.83-9.38-.15,9.28-6.27-.1.39-24.12,9.76.16c1.34.02,2.51.24,3.51.65,1,.41,1.81.96,2.45,1.65.64.69,1.12,1.49,1.43,2.39.32.9.47,1.86.45,2.89-.03,1.83-.5,3.31-1.4,4.44-.9,1.13-2.22,1.88-3.96,2.26l7.42,10.01ZM201.19,45.27l1.18.02c1.24.02,2.19-.22,2.86-.72.67-.5,1.01-1.23,1.03-2.19.02-.96-.3-1.7-.96-2.22-.65-.52-1.6-.79-2.84-.81l-1.18-.02-.1,5.95Z"/><path class="cls-1" d="M232.16,43.63c-.58-.66-1.19-1.17-1.82-1.55-.63-.37-1.26-.61-1.89-.71-.8-.13-1.48-.05-2.05.25-.57.3-.9.75-1,1.36-.07.42,0,.79.21,1.1.21.31.5.61.88.87.38.27.81.52,1.3.75.49.23.98.47,1.45.72,1.91,1,3.24,2.14,4,3.42s.98,2.83.69,4.64c-.2,1.22-.58,2.29-1.16,3.21-.57.92-1.31,1.67-2.22,2.25-.9.58-1.96.97-3.17,1.17s-2.54.19-4-.05c-3.01-.49-5.65-1.84-7.93-4.05l3.47-4.56c.79.97,1.61,1.73,2.45,2.28.84.55,1.7.89,2.59,1.04,1.01.16,1.8.06,2.37-.33.57-.38.9-.87,1-1.46.06-.36.05-.68-.04-.96-.08-.28-.25-.56-.51-.83-.26-.27-.61-.54-1.05-.8-.44-.27-.98-.57-1.62-.91-.76-.38-1.5-.79-2.22-1.22-.72-.43-1.34-.95-1.85-1.55-.52-.6-.9-1.32-1.14-2.15-.24-.83-.27-1.83-.08-3.01.19-1.18.56-2.21,1.11-3.11.55-.89,1.23-1.63,2.05-2.19.82-.57,1.77-.96,2.85-1.17,1.08-.21,2.26-.22,3.52,0,1.18.19,2.38.56,3.62,1.09s2.38,1.22,3.46,2.04l-3.25,4.43Z"/><path class="cls-1" d="M267.16,56.8c-.7-2.18-2.05-3.66-4.03-4.44-.87-.34-1.75-.5-2.61-.48-.87.03-1.68.21-2.43.54-.75.34-1.43.82-2.03,1.45-.6.64-1.08,1.39-1.42,2.26-.35.89-.52,1.78-.51,2.65.01.88.18,1.7.51,2.47.33.77.8,1.46,1.41,2.06.61.61,1.34,1.08,2.2,1.41,1.87.73,3.86.6,5.97-.41l-2.71,6.91-.68-.03c-1.02-.03-1.94-.13-2.78-.28-.83-.15-1.63-.38-2.38-.68-1.55-.61-2.92-1.48-4.11-2.63-1.19-1.14-2.12-2.46-2.78-3.95-.67-1.49-1.04-3.09-1.12-4.81s.22-3.44.89-5.17c.68-1.73,1.62-3.18,2.83-4.37,1.21-1.19,2.56-2.09,4.05-2.7,1.49-.62,3.07-.94,4.73-.96,1.66-.02,3.27.27,4.84.89.89.35,1.74.79,2.52,1.32.79.53,1.58,1.18,2.38,1.95l-2.74,6.97Z"/><path class="cls-1" d="M269.47,62c.93-1.53,2.08-2.79,3.45-3.76,1.37-.98,2.85-1.65,4.46-2.03,1.6-.38,3.27-.42,5-.12,1.73.29,3.44.95,5.11,1.97,1.66,1.01,3.02,2.22,4.09,3.63,1.06,1.41,1.8,2.91,2.22,4.51.41,1.6.5,3.23.26,4.9-.24,1.67-.82,3.26-1.76,4.79s-2.08,2.79-3.45,3.76c-1.37.98-2.86,1.65-4.47,2.02s-3.29.4-5.03.11c-1.74-.3-3.44-.95-5.1-1.96-1.68-1.02-3.04-2.23-4.1-3.64-1.06-1.4-1.79-2.9-2.19-4.5-.4-1.59-.49-3.22-.25-4.89.24-1.66.82-3.26,1.76-4.79ZM275.08,65.41c-.5.82-.8,1.67-.92,2.55-.11.88-.06,1.74.16,2.57.22.83.59,1.6,1.12,2.31.53.71,1.19,1.3,1.97,1.78.78.48,1.61.79,2.49.93.87.14,1.73.13,2.58-.06.85-.18,1.64-.53,2.37-1.03.73-.5,1.35-1.17,1.85-1.99.5-.82.8-1.67.92-2.55.11-.88.05-1.74-.17-2.58-.23-.84-.61-1.61-1.13-2.32-.53-.71-1.19-1.3-1.97-1.78-.78-.48-1.61-.79-2.49-.93-.87-.14-1.73-.12-2.57.07-.84.19-1.62.53-2.36,1.04-.73.5-1.35,1.17-1.85,1.99Z"/><path class="cls-1" d="M301.09,94.09l-6.71-5.94-3.86,2.18-5.01-4.43,22.87-11.98,5.13,4.54-9.12,24.15-5.01-4.43,1.7-4.09ZM303.01,89.42l3.21-7.88-7.43,4.15,4.22,3.73Z"/><path class="cls-1" d="M327.62,93.24l-14.34,12.18,4.87,5.73-4.05,3.44-8.93-10.51,18.39-15.62,4.06,4.78Z"/><path class="cls-1" d="M338.73,107.89l-19.77,13.83-3.59-5.14,19.77-13.82,3.59,5.14Z"/><path class="cls-1" d="M342.16,123.83l-16.37,9.28-3.09-5.46,16.37-9.28-2.54-4.48,4.62-2.62,8.17,14.42-4.62,2.62-2.54-4.48Z"/><path class="cls-1" d="M353.55,135.25l-22.02,9.86-2.56-5.72,22.02-9.86,2.56,5.72Z"/><path class="cls-1" d="M344.75,144.16c1.72-.5,3.41-.65,5.09-.45,1.67.2,3.22.7,4.66,1.51,1.43.8,2.69,1.9,3.77,3.28,1.08,1.39,1.9,3.02,2.45,4.9.54,1.86.73,3.68.57,5.43-.16,1.76-.63,3.37-1.41,4.83-.77,1.46-1.81,2.72-3.11,3.79-1.3,1.07-2.81,1.85-4.53,2.35-1.72.5-3.42.65-5.09.45-1.67-.2-3.22-.71-4.66-1.52-1.44-.82-2.7-1.92-3.78-3.31-1.08-1.4-1.9-3.02-2.44-4.89-.55-1.88-.74-3.7-.57-5.45.17-1.75.64-3.35,1.42-4.8.78-1.45,1.81-2.71,3.12-3.77,1.3-1.07,2.81-1.85,4.53-2.36ZM346.59,150.46c-.92.27-1.72.69-2.4,1.27-.68.58-1.22,1.24-1.62,2.01-.4.76-.64,1.58-.73,2.46-.09.88,0,1.76.25,2.64s.66,1.67,1.21,2.36c.55.7,1.2,1.26,1.95,1.7.75.44,1.56.72,2.44.84.88.12,1.78.05,2.7-.22.92-.27,1.72-.69,2.4-1.27.68-.58,1.21-1.25,1.61-2.02.4-.77.64-1.6.73-2.48.09-.88,0-1.76-.25-2.64-.26-.88-.66-1.67-1.21-2.36-.55-.7-1.19-1.26-1.94-1.68-.75-.43-1.56-.7-2.44-.82-.88-.12-1.78-.05-2.7.22Z"/><path class="cls-1" d="M341,175.73l24.03-2.15.56,6.25-13.66,12.85,14.69-1.31.56,6.21-24.03,2.15-.56-6.21,13.66-12.85-14.69,1.32-.56-6.25Z"/><path class="cls-1" d="M126.71,242.58v-70.96h-14.19v-14.19h42.58v14.19h-14.19v70.96h-14.19Z"/><path class="cls-1" d="M164.52,242.58v-85.16h14.19v70.96h14.19v-70.96h14.19v70.96h14.19v-70.96h14.19v85.16h-70.96Z"/><path class="cls-1" d="M244.91,242.58v-85.16h42.58v28.39h-14.19v-14.19h-14.19v56.77h14.19v-14.19h14.19v28.39h-42.58Z"/><rect class="cls-1" x="100.7" y="133.27" width="64.93" height="4.14"/><polygon class="cls-1" points="200.51 137.81 180.79 137.81 180.79 133.67 198.12 133.67 227.49 83.28 231.07 85.37 200.51 137.81"/><path class="cls-1" d="M172.41,144.69c-5.22,0-9.46-4.24-9.46-9.46s4.24-9.46,9.46-9.46,9.46,4.24,9.46,9.46-4.24,9.46-9.46,9.46ZM172.41,129.92c-2.93,0-5.32,2.38-5.32,5.32s2.38,5.32,5.32,5.32,5.32-2.38,5.32-5.32-2.38-5.32-5.32-5.32Z"/><path class="cls-1" d="M224.8,139.7c-5.22,0-9.46-4.24-9.46-9.46s4.24-9.46,9.46-9.46,9.46,4.24,9.46,9.46-4.24,9.46-9.46,9.46ZM224.8,124.92c-2.93,0-5.32,2.38-5.32,5.32s2.38,5.32,5.32,5.32,5.32-2.38,5.32-5.32-2.38-5.32-5.32-5.32Z"/><rect class="cls-1" x="220.65" y="105.32" width="36.16" height="4.15" transform="translate(23.47 256.35) rotate(-58.9)"/><path class="cls-1" d="M195.81,111.43c-5.22,0-9.46-4.24-9.46-9.46s4.24-9.46,9.46-9.46,9.46,4.24,9.46,9.46-4.24,9.46-9.46,9.46ZM195.81,96.65c-2.93,0-5.32,2.38-5.32,5.32s2.38,5.32,5.32,5.32,5.32-2.38,5.32-5.32-2.38-5.32-5.32-5.32Z"/><rect class="cls-1" x="195.8" y="86.6" width="16.26" height="4.15" transform="translate(21.47 215.79) rotate(-58.36)"/><rect class="cls-1" x="235.29" y="262.95" width="64.93" height="4.14"/><polygon class="cls-1" points="173.43 317.08 169.85 315 200.42 262.55 220.13 262.55 220.13 266.7 202.8 266.7 173.43 317.08"/><path class="cls-1" d="M228.51,274.59c-5.22,0-9.46-4.24-9.46-9.46s4.24-9.46,9.46-9.46,9.46,4.24,9.46,9.46-4.24,9.46-9.46,9.46ZM228.51,259.82c-2.93,0-5.32,2.38-5.32,5.32s2.38,5.32,5.32,5.32,5.32-2.38,5.32-5.32-2.38-5.32-5.32-5.32Z"/><path class="cls-1" d="M176.13,279.59c-5.22,0-9.46-4.24-9.46-9.46s4.24-9.46,9.46-9.46,9.46,4.24,9.46,9.46-4.24,9.46-9.46,9.46ZM176.13,264.81c-2.93,0-5.32,2.38-5.32,5.32s2.38,5.32,5.32,5.32,5.32-2.38,5.32-5.32-2.38-5.32-5.32-5.32Z"/><rect class="cls-1" x="144.1" y="290.9" width="36.16" height="4.15" transform="translate(-172.45 280.53) rotate(-58.9)"/><path class="cls-1" d="M205.11,307.86c-5.22,0-9.46-4.24-9.46-9.46s4.24-9.46,9.46-9.46,9.46,4.24,9.46,9.46-4.24,9.46-9.46,9.46ZM205.11,293.08c-2.93,0-5.32,2.38-5.32,5.32s2.38,5.32,5.32,5.32,5.32-2.38,5.32-5.32-2.38-5.32-5.32-5.32Z"/><rect class="cls-1" x="188.86" y="309.62" width="16.26" height="4.14" transform="translate(-171.71 315.98) rotate(-58.37)"/><path class="cls-1" d="M200,322c-67.27,0-122-54.73-122-122s54.73-122,122-122,122,54.73,122,122-54.73,122-122,122ZM200,80.09c-66.12,0-119.91,53.79-119.91,119.91s53.79,119.91,119.91,119.91,119.91-53.79,119.91-119.91-53.79-119.91-119.91-119.91ZM200,319.86c-66.09,0-119.86-53.77-119.86-119.86s53.77-119.86,119.86-119.86,119.86,53.77,119.86,119.86-53.77,119.86-119.86,119.86ZM200,82.23c-64.94,0-117.77,52.83-117.77,117.77s52.83,117.77,117.77,117.77,117.77-52.83,117.77-117.77-52.83-117.77-117.77-117.77Z"/></svg>