<svg width="185" height="61" viewBox="0 0 185 61" fill="none" xmlns="https://www.w3.org/2000/svg">
<path d="M16.9137 16.5725C17.1162 16.5711 17.3169 16.61 17.5042 16.6868C17.6916 16.7637 17.8618 16.877 18.005 17.0201C18.1481 17.1633 18.2614 17.3335 18.3383 17.5209C18.4152 17.7082 18.454 17.9089 18.4526 18.1114C18.4526 18.5599 18.2924 19.1362 17.9719 19.8406C17.6007 20.6255 17.1362 21.3628 16.5886 22.0366C15.9124 22.8575 15.0641 23.5198 14.1038 23.9767C13.024 24.5158 11.8315 24.7902 10.6247 24.7773C7.91108 24.7773 5.65106 23.575 3.84467 21.1703C2.03827 18.7656 1.1391 15.9505 1.14717 12.7251C1.13384 10.6985 1.53761 8.69079 2.33338 6.8269C3.05964 5.07492 4.2251 3.53963 5.71735 2.36912C7.11586 1.25923 8.85144 0.660165 10.6368 0.671081C11.6 0.664459 12.556 0.838055 13.4554 1.18291C14.1966 1.44937 14.8898 1.8342 15.5079 2.32243C16.0121 2.75369 16.4637 3.24297 16.8532 3.78012C17.1392 4.14646 17.391 4.53832 17.6053 4.95076C17.7022 5.17555 17.7783 5.37268 17.8457 5.54386C17.9092 5.70946 17.942 5.88525 17.9425 6.06261C17.9441 6.3771 17.8487 6.68442 17.6693 6.94276C17.4966 7.20358 17.2434 7.4009 16.9483 7.50473L16.6923 7.56871C16.6081 7.58972 16.5216 7.60075 16.4347 7.60157C16.1219 7.60337 15.8154 7.51383 15.5528 7.34392C15.2982 7.18627 15.1016 6.95023 14.9926 6.67128C14.9061 6.47934 14.8006 6.27011 14.6727 6.04532C14.4664 5.71845 14.2352 5.408 13.981 5.11676C13.6018 4.68792 13.1283 4.3529 12.5977 4.13805C11.9778 3.87477 11.3103 3.74232 10.6368 3.74899C8.96991 3.74899 7.48455 4.60378 6.18076 6.31334C4.87698 8.02291 4.22508 10.1602 4.22508 12.7251C4.22508 15.29 4.88274 17.4273 6.19806 19.1368C7.51337 20.8464 8.99296 21.7012 10.6368 21.7012C11.3046 21.7054 11.964 21.552 12.5614 21.2533C13.1174 20.9857 13.6178 20.6156 14.0364 20.1622C14.3782 19.7884 14.6838 19.3831 14.9494 18.9518C15.1381 18.6589 15.2837 18.3403 15.3816 18.0059C15.4054 17.7536 15.4877 17.5103 15.622 17.2953C15.7565 17.0756 15.9445 16.8935 16.1684 16.7661C16.3956 16.6373 16.6526 16.5706 16.9137 16.5725Z" fill="white" stroke="white" stroke-width="0.75" stroke-miterlimit="10"/>
<path d="M33.0484 9.95139C34.4053 11.6944 35.0842 13.7302 35.0854 16.0588C35.0865 18.3874 34.4076 20.4232 33.0484 22.1662C31.6916 23.9092 29.9763 24.7801 27.9024 24.779C25.8286 24.7778 24.1139 23.9069 22.7582 22.1662C21.3979 20.4255 20.7178 18.3897 20.7178 16.0588C20.7178 13.7279 21.3979 11.6921 22.7582 9.95139C24.115 8.20954 25.8298 7.33862 27.9024 7.33862C29.9751 7.33862 31.6905 8.20954 33.0484 9.95139ZM30.7469 20.1154C31.5908 19.0572 32.0132 17.705 32.0144 16.0588C32.0156 14.4126 31.5931 13.061 30.7469 12.0039C29.9031 10.9457 28.9572 10.4165 27.9094 10.4165C26.8615 10.4165 25.9162 10.9457 25.0735 12.0039C24.2274 13.0622 23.8049 14.4138 23.8061 16.0588C23.8072 17.7038 24.2297 19.056 25.0735 20.1154C25.9174 21.1714 26.8626 21.6999 27.9094 21.7011C28.9561 21.7022 29.9019 21.1737 30.7469 20.1154Z" fill="white" stroke="white" stroke-width="0.75" stroke-miterlimit="10"/>
<path d="M38.5646 1.37668C38.8543 1.08852 39.2462 0.926758 39.6548 0.926758C40.0634 0.926758 40.4554 1.08852 40.7451 1.37668C40.8904 1.51792 41.0053 1.68745 41.0827 1.87481C41.16 2.06217 41.1981 2.26339 41.1946 2.46605V19.9064C41.1946 21.103 41.269 22.0217 41.4177 22.6627C41.4166 22.7009 41.4224 22.739 41.435 22.7751C41.4451 22.8064 41.4503 22.839 41.4506 22.8719V22.9843C41.45 23.0763 41.439 23.168 41.4177 23.2575C41.3968 23.3547 41.3703 23.4505 41.3382 23.5446C41.3093 23.6366 41.2661 23.7236 41.2102 23.8022C41.156 23.8771 41.0984 23.9515 41.0373 24.0253C40.9764 24.0982 40.9067 24.1632 40.8298 24.2189C40.7492 24.2757 40.6628 24.3238 40.5722 24.3624L40.3007 24.4904C40.1733 24.5124 40.0443 24.5234 39.9151 24.5233C39.5802 24.5254 39.2537 24.4186 38.9848 24.2189C38.7048 24.0119 38.5109 23.7091 38.4401 23.3682C38.228 22.5612 38.1213 21.4085 38.1202 19.9099V2.46605C38.116 2.26375 38.1532 2.06273 38.2297 1.87538C38.3061 1.68802 38.4201 1.5183 38.5646 1.37668Z" fill="white" stroke="white" stroke-width="0.75" stroke-miterlimit="10"/>
<path d="M45.8287 1.37668C46.1184 1.08852 46.5104 0.926758 46.9189 0.926758C47.3275 0.926758 47.7195 1.08852 48.0092 1.37668C48.1543 1.51801 48.269 1.68759 48.346 1.87496C48.423 2.06233 48.4608 2.2635 48.457 2.46605V19.9064C48.457 21.103 48.532 22.0217 48.6818 22.6627C48.681 22.7007 48.6863 22.7387 48.6974 22.7751C48.708 22.8063 48.7138 22.8389 48.7147 22.8719V22.9843C48.7133 23.0763 48.7023 23.1678 48.6818 23.2575C48.6594 23.3526 48.6334 23.4495 48.6023 23.5446C48.5721 23.6364 48.5284 23.7232 48.4726 23.8022C48.419 23.8766 48.3619 23.9509 48.2997 24.0253C48.2378 24.0978 48.1676 24.1628 48.0905 24.2189C48.0105 24.2757 47.9247 24.3238 47.8345 24.3625C47.7377 24.4057 47.6461 24.4489 47.5613 24.4904C47.4346 24.5125 47.3061 24.5235 47.1775 24.5233C46.8425 24.5256 46.5159 24.4188 46.2472 24.2189C45.9666 24.0125 45.7725 23.7094 45.7025 23.3682C45.4881 22.5612 45.3809 21.4085 45.3809 19.9099V2.46605C45.3772 2.26352 45.415 2.06238 45.492 1.87502C45.5691 1.68767 45.6836 1.51807 45.8287 1.37668Z" fill="white" stroke="white" stroke-width="0.75" stroke-miterlimit="10"/>
<path d="M55.2544 16.8282C55.3847 18.3268 55.8285 19.513 56.5859 20.3868C57.3433 21.2606 58.1715 21.6986 59.0707 21.7009C59.5261 21.7029 59.9793 21.6382 60.416 21.509C60.7806 21.4077 61.1297 21.257 61.4535 21.0611C61.7259 20.8852 61.9786 20.6806 62.2074 20.4507C62.3794 20.2854 62.54 20.1086 62.6881 19.9216C62.7728 19.8058 62.8472 19.6934 62.9129 19.5862C63.1688 19.1158 63.6069 18.8807 64.2271 18.8807C64.3082 18.8802 64.389 18.8907 64.4674 18.9118C64.5418 18.9343 64.6213 18.955 64.7078 18.9758C64.7876 18.9953 64.8636 19.028 64.9326 19.0726C65.184 19.1931 65.3943 19.3852 65.5367 19.6249C65.6792 19.8646 65.7475 20.1411 65.7332 20.4196C65.7353 20.668 65.6689 20.9121 65.5412 21.1251C65.4659 21.2938 65.3744 21.4548 65.268 21.6058C65.0349 21.9144 64.7837 22.2088 64.5158 22.4877C64.1371 22.8988 63.7117 23.2644 63.2483 23.5771C62.6852 23.9352 62.0762 24.2155 61.4379 24.4105C60.6718 24.6589 59.8709 24.7832 59.0655 24.7788C57.0343 24.7788 55.3726 23.9189 54.0803 22.1989C52.7881 20.479 52.1431 18.4322 52.1454 16.0587V15.7872C52.1454 15.6907 52.1505 15.5943 52.161 15.4984C52.1719 15.4025 52.1777 15.3062 52.1782 15.2097C52.1778 15.1177 52.1882 15.026 52.2094 14.9364C52.4019 12.82 53.1287 11.0251 54.3898 9.55183C55.651 8.07859 57.2113 7.34081 59.0707 7.3385C59.7763 7.33408 60.4777 7.44805 61.1457 7.67569C61.8098 7.90764 62.4279 8.25474 62.9717 8.70108C63.555 9.17787 64.0593 9.74397 64.4657 10.3784C64.9213 11.0936 65.2566 11.8787 65.4582 12.7024C65.6563 13.5479 65.7533 14.4139 65.747 15.2823C65.749 15.4894 65.7056 15.6943 65.6198 15.8828C65.5341 16.0714 65.4081 16.2388 65.2507 16.3734C64.9739 16.6484 64.6032 16.8084 64.2132 16.8212L55.2544 16.8282ZM55.5432 13.7502H62.5325C62.4743 13.4491 62.3886 13.1539 62.2766 12.8684C62.1498 12.5638 61.9994 12.2695 61.827 11.9882C61.1653 10.9404 60.2465 10.4164 59.0707 10.4164C58.7889 10.4199 58.5091 10.4653 58.2407 10.5513C57.9496 10.6435 57.6739 10.7787 57.4228 10.9525C57.147 11.139 56.8985 11.3631 56.6844 11.6182C56.4412 11.9125 56.2265 12.2292 56.0429 12.564C55.8334 12.94 55.6659 13.3377 55.5432 13.7502Z" fill="white" stroke="white" stroke-width="0.75" stroke-miterlimit="10"/>
<path d="M81.8646 18.8808C82.1166 19.0008 82.3273 19.1928 82.4701 19.4326C82.6129 19.6724 82.6814 19.9491 82.667 20.2278C82.6506 20.4835 82.5848 20.7337 82.4733 20.9644C81.8859 22.0623 81.0483 23.0066 80.0283 23.7207C79.0391 24.4181 77.8563 24.7882 76.646 24.779C74.5929 24.779 72.9047 23.908 71.5813 22.1662C70.2579 20.4244 69.5951 18.3886 69.5928 16.0588C69.5928 13.7302 70.2556 11.6944 71.5813 9.95139C72.907 8.20839 74.5929 7.33747 76.6391 7.33862C77.3868 7.33916 78.1271 7.48663 78.8179 7.77264C79.5035 8.04818 80.1373 8.43817 80.6923 8.926C81.2496 9.42118 81.7402 9.98675 82.1517 10.6085C82.193 10.6707 82.2305 10.7354 82.2641 10.8021C82.2968 10.8688 82.3234 10.9382 82.3436 11.0096C82.3634 11.0785 82.3795 11.1483 82.392 11.2189C82.4031 11.2927 82.4083 11.3673 82.4076 11.4419C82.4085 11.5669 82.3922 11.6914 82.3592 11.812C82.3262 11.9306 82.2834 12.0463 82.2312 12.1578C82.1763 12.2767 82.1008 12.385 82.0082 12.4777C81.9165 12.5702 81.8137 12.6509 81.7021 12.7181C81.4591 12.891 81.1668 12.9807 80.8686 12.974C80.6129 12.9833 80.3592 12.9239 80.1342 12.802C79.9091 12.68 79.7209 12.5 79.5891 12.2806C78.7764 11.0425 77.793 10.4229 76.6391 10.4217C75.6339 10.4217 74.7203 10.9508 73.8984 12.0091C73.0765 13.0673 72.6649 14.419 72.6638 16.064C72.6638 17.7101 73.0753 19.0624 73.8984 20.1206C74.7215 21.1788 75.635 21.7074 76.6391 21.7062C77.259 21.699 77.862 21.5036 78.3683 21.146C78.9679 20.7206 79.4527 20.1533 79.7793 19.4946C79.8992 19.2427 80.0912 19.0321 80.3311 18.8896C80.5709 18.747 80.8477 18.679 81.1263 18.694C81.2557 18.6942 81.3845 18.7099 81.5102 18.7407C81.6344 18.7702 81.7538 18.8173 81.8646 18.8808Z" fill="white" stroke="white" stroke-width="0.75" stroke-miterlimit="10"/>
<path d="M85.5357 10.2246C85.3199 10.0092 85.1729 9.73465 85.1134 9.43566C85.0538 9.13666 85.0845 8.82672 85.2013 8.54515C85.3182 8.26359 85.5161 8.02308 85.7699 7.85414C86.0237 7.6852 86.3219 7.59544 86.6268 7.59625H87.9081V4.00478C87.9081 3.80268 87.9479 3.60256 88.0252 3.41584C88.1026 3.22913 88.2159 3.05948 88.3588 2.91657C88.5017 2.77366 88.6714 2.66031 88.8581 2.58297C89.0448 2.50563 89.2449 2.46582 89.447 2.46582C89.6491 2.46582 89.8492 2.50563 90.036 2.58297C90.2227 2.66031 90.3923 2.77366 90.5352 2.91657C90.6781 3.05948 90.7915 3.22913 90.8688 3.41584C90.9462 3.60256 90.986 3.80268 90.986 4.00478V7.59625H92.269C92.5734 7.59661 92.8708 7.68711 93.1238 7.85631C93.3767 8.02552 93.5739 8.26587 93.6905 8.54702C93.807 8.82818 93.8376 9.13755 93.7785 9.4361C93.7195 9.73466 93.5733 10.009 93.3584 10.2246C93.2171 10.3697 93.0475 10.4844 92.8601 10.5614C92.6728 10.6384 92.4716 10.6762 92.269 10.6724H90.986V22.9841C90.986 23.3922 90.8238 23.7837 90.5352 24.0723C90.2466 24.3609 89.8552 24.523 89.447 24.523C89.0389 24.523 88.6474 24.3609 88.3588 24.0723C88.0702 23.7837 87.9081 23.3922 87.9081 22.9841V10.6724H86.6268C86.4239 10.6763 86.2225 10.6386 86.0348 10.5616C85.8471 10.4846 85.6773 10.3699 85.5357 10.2246Z" fill="white" stroke="white" stroke-width="0.75" stroke-miterlimit="10"/>
<path d="M99.3551 4.58232C99.1397 4.79812 98.8651 4.94511 98.5661 5.00463C98.2671 5.06415 97.9572 5.03352 97.6756 4.91663C97.3941 4.79975 97.1536 4.60187 96.9846 4.34809C96.8157 4.09431 96.7259 3.79608 96.7267 3.49122V1.95226C96.7237 1.75058 96.7618 1.55039 96.8388 1.36397C96.9158 1.17754 97.0301 1.0088 97.1746 0.868076C97.4656 0.582409 97.8571 0.422363 98.2648 0.422363C98.6726 0.422363 99.0641 0.582409 99.3551 0.868076C99.5004 1.00932 99.6153 1.17885 99.6927 1.36621C99.77 1.55357 99.8081 1.75479 99.8046 1.95745V3.4964C99.8075 3.69847 99.7691 3.899 99.6918 4.08572C99.6145 4.27244 99.4999 4.44142 99.3551 4.58232ZM99.3551 24.0734C99.1398 24.2891 98.8654 24.4361 98.5666 24.4957C98.2677 24.5552 97.9579 24.5248 97.6764 24.4081C97.3949 24.2914 97.1544 24.0938 96.9853 23.8403C96.8163 23.5868 96.7263 23.2888 96.7267 22.9841V9.13348C96.7267 8.72532 96.8889 8.33388 97.1775 8.04527C97.4661 7.75666 97.8575 7.59452 98.2657 7.59452C98.6738 7.59452 99.0653 7.75666 99.3539 8.04527C99.6425 8.33388 99.8046 8.72532 99.8046 9.13348V22.9841C99.8081 23.1867 99.77 23.388 99.6927 23.5753C99.6153 23.7627 99.5004 23.9322 99.3551 24.0734Z" fill="white" stroke="white" stroke-width="0.75" stroke-miterlimit="10"/>
<path d="M104.197 7.66047C104.342 7.61498 104.494 7.59337 104.646 7.59649C104.971 7.59735 105.286 7.70422 105.544 7.90082C105.815 8.09444 106.017 8.36943 106.121 8.68586L109.519 19.4897L112.917 8.68586C112.981 8.47232 113.091 8.27526 113.239 8.10832C113.382 7.94066 113.564 7.80916 113.768 7.72444C113.965 7.63957 114.177 7.59602 114.392 7.59649C114.544 7.59352 114.696 7.61512 114.841 7.66047C115.054 7.72479 115.25 7.83387 115.417 7.98036C115.584 8.1253 115.716 8.30621 115.803 8.50948C115.887 8.70698 115.93 8.9192 115.931 9.13371C115.934 9.28605 115.912 9.43791 115.867 9.5833L111.499 23.4339C111.397 23.7432 111.204 24.0144 110.946 24.212C110.684 24.4126 110.362 24.5197 110.033 24.5163H109.006C108.681 24.5146 108.366 24.4078 108.108 24.212C107.837 24.0181 107.635 23.7432 107.531 23.427L103.171 9.5833C103.126 9.43791 103.104 9.28605 103.107 9.13371C103.107 8.91911 103.151 8.70673 103.235 8.50948C103.321 8.30551 103.453 8.12433 103.621 7.98036C103.788 7.83342 103.984 7.72429 104.197 7.66047Z" fill="white" stroke="white" stroke-width="0.75" stroke-miterlimit="10"/>
<path d="M121.182 16.8282C121.313 18.3268 121.756 19.513 122.514 20.3868C123.271 21.2606 124.099 21.6986 124.999 21.7009C125.454 21.7029 125.907 21.6382 126.344 21.509C126.708 21.4077 127.058 21.257 127.381 21.0611C127.654 20.8852 127.906 20.6806 128.135 20.4507C128.307 20.2854 128.468 20.1086 128.616 19.9216C128.701 19.8058 128.775 19.6934 128.841 19.5862C129.097 19.1158 129.535 18.8807 130.155 18.8807C130.236 18.8802 130.317 18.8907 130.395 18.9118C130.47 18.9343 130.549 18.955 130.636 18.9758C130.715 18.9953 130.791 19.028 130.86 19.0726C131.112 19.1931 131.322 19.3852 131.465 19.6249C131.607 19.8646 131.675 20.1411 131.661 20.4196C131.663 20.668 131.597 20.9121 131.469 21.1251C131.394 21.2938 131.302 21.4548 131.196 21.6058C130.963 21.9144 130.712 22.2088 130.444 22.4877C130.065 22.8988 129.64 23.2644 129.176 23.5771C128.613 23.9352 128.004 24.2155 127.366 24.4105C126.6 24.6589 125.799 24.7832 124.993 24.7788C122.962 24.7788 121.3 23.9189 120.008 22.1989C118.716 20.479 118.073 18.4322 118.08 16.0587V15.7872C118.08 15.6907 118.085 15.5943 118.096 15.4984C118.107 15.4025 118.112 15.3062 118.113 15.2097C118.112 15.1177 118.123 15.026 118.144 14.9364C118.337 12.82 119.061 11.0251 120.318 9.55183C121.574 8.07859 123.134 7.34081 124.999 7.3385C125.704 7.33408 126.406 7.44805 127.074 7.67569C127.737 7.908 128.356 8.25507 128.9 8.70108C129.482 9.17751 129.985 9.7437 130.39 10.3784C130.848 11.0953 131.184 11.8828 131.384 12.7093C131.582 13.5548 131.679 14.4208 131.673 15.2892C131.675 15.4963 131.632 15.7013 131.546 15.8898C131.46 16.0783 131.334 16.2457 131.177 16.3803C130.9 16.6553 130.529 16.8153 130.139 16.8282H121.182ZM121.471 13.7502H128.46C128.401 13.4493 128.316 13.1542 128.204 12.8684C128.078 12.5638 127.927 12.2695 127.755 11.9882C127.093 10.9404 126.174 10.4164 124.999 10.4164C124.716 10.4173 124.435 10.4604 124.165 10.5444C123.874 10.6366 123.598 10.7718 123.347 10.9455C123.071 11.1348 122.823 11.3611 122.609 11.6182C122.367 11.913 122.153 12.2297 121.969 12.564C121.763 12.9403 121.598 13.3381 121.478 13.7502H121.471Z" fill="white" stroke="white" stroke-width="0.75" stroke-miterlimit="10"/>
<path d="M1.40489 60.0692C1.25164 60.0246 1.10959 59.9479 0.988163 59.8444C0.861755 59.7417 0.751066 59.6211 0.659622 59.4864C0.573758 59.3565 0.504077 59.2165 0.452122 59.0697C0.402167 58.9257 0.377593 58.7742 0.379497 58.6218C0.379355 58.4446 0.411585 58.2688 0.474601 58.1031L7.52786 37.5952C7.64144 37.3019 7.83864 37.0483 8.09501 36.8661C8.35137 36.6838 8.65561 36.5808 8.96998 36.5698H10.7666C11.0908 36.5716 11.4056 36.6783 11.664 36.8742C11.9189 37.0491 12.1101 37.3022 12.2087 37.5952L19.262 58.1135C19.325 58.2792 19.3572 58.455 19.3571 58.6322C19.3575 58.8418 19.3139 59.0492 19.2291 59.2409C19.1434 59.4373 19.018 59.6139 18.8608 59.7596C18.5761 60.0184 18.2079 60.1663 17.8233 60.1764C17.5065 60.1772 17.1979 60.076 16.9432 59.8876C16.6802 59.7044 16.4818 59.443 16.376 59.1406L15.1258 55.5508H4.61076L3.36057 59.1406C3.25458 59.4392 3.05814 59.6973 2.7986 59.8789C2.54336 60.0676 2.23409 60.1688 1.91672 60.1677C1.74117 60.1701 1.56699 60.1366 1.40489 60.0692ZM5.6742 52.4712H14.0676L9.86742 40.2235L5.6742 52.4712Z" fill="white" stroke="white" stroke-width="0.75" stroke-miterlimit="10"/>
<path d="M33.7851 54.5223C34.037 54.6425 34.2475 54.8346 34.3903 55.0743C34.5331 55.314 34.6017 55.5907 34.5875 55.8693C34.5708 56.1254 34.5057 56.376 34.3955 56.6077C33.805 57.7061 32.9645 58.6503 31.9419 59.364C30.9527 60.0614 29.7699 60.4315 28.5596 60.4222C26.5088 60.4222 24.8206 59.5513 23.4949 57.8095C22.1692 56.0676 21.5063 54.033 21.5063 51.7055C21.5063 49.3758 22.1692 47.34 23.4949 45.5981C24.8206 43.8563 26.5088 42.9854 28.5596 42.9854C29.3077 42.9851 30.0486 43.132 30.7401 43.4176C31.4258 43.6948 32.06 44.0853 32.6162 44.5727C33.1734 45.0676 33.6635 45.6332 34.0739 46.2552C34.1158 46.3165 34.1534 46.3806 34.1863 46.4471C34.2198 46.514 34.2464 46.5841 34.2658 46.6564C34.2866 46.7244 34.3027 46.7937 34.3143 46.8639C34.3452 47.0616 34.3346 47.2636 34.2831 47.457C34.2486 47.5751 34.2059 47.6907 34.1552 47.8028C34.0997 47.9223 34.0236 48.0312 33.9304 48.1244C33.8385 48.216 33.7364 48.2966 33.6261 48.3648C33.3831 48.5377 33.0907 48.6275 32.7926 48.6207C32.5351 48.6293 32.28 48.5683 32.0542 48.4441C31.8284 48.32 31.6403 48.1372 31.5096 47.9152C30.7026 46.676 29.7193 46.0563 28.5596 46.0563C27.5544 46.0563 26.6408 46.5855 25.8189 47.6437C24.997 48.702 24.5854 50.0559 24.5843 51.7055C24.5843 53.3517 24.9958 54.7033 25.8189 55.7604C26.642 56.8175 27.5555 57.3466 28.5596 57.3478C29.1794 57.3406 29.7825 57.1452 30.2888 56.7875C30.8888 56.3627 31.3738 55.7952 31.6998 55.1362C31.8198 54.8842 32.0118 54.6735 32.2516 54.5307C32.4914 54.3879 32.7681 54.3194 33.0468 54.3339C33.1762 54.3346 33.3051 54.3509 33.4307 54.3823C33.5551 54.4113 33.6745 54.4585 33.7851 54.5223Z" fill="white" stroke="white" stroke-width="0.75" stroke-miterlimit="10"/>
<path d="M36.7992 45.8679C36.5838 45.6524 36.4371 45.3779 36.3776 45.0791C36.3182 44.7802 36.3487 44.4704 36.4653 44.1889C36.5819 43.9074 36.7794 43.6668 37.0327 43.4975C37.286 43.3282 37.5839 43.2379 37.8886 43.2378H39.1716V39.6481C39.1716 39.2399 39.3338 38.8485 39.6224 38.5599C39.911 38.2713 40.3024 38.1091 40.7106 38.1091C41.1187 38.1091 41.5102 38.2713 41.7988 38.5599C42.0874 38.8485 42.2495 39.2399 42.2495 39.6481V43.2326H43.5309C43.939 43.2326 44.3304 43.3948 44.6191 43.6834C44.9077 43.972 45.0698 44.3634 45.0698 44.7716C45.0698 45.1798 44.9077 45.5712 44.6191 45.8598C44.3304 46.1484 43.939 46.3106 43.5309 46.3106H42.2495V58.6222C42.2495 59.0304 42.0874 59.4218 41.7988 59.7104C41.5102 59.999 41.1187 60.1612 40.7106 60.1612C40.3024 60.1612 39.911 59.999 39.6224 59.7104C39.3338 59.4218 39.1716 59.0304 39.1716 58.6222V46.3106H37.8886C37.6864 46.315 37.4855 46.278 37.2981 46.2019C37.1108 46.1258 36.941 46.0121 36.7992 45.8679Z" fill="white" stroke="white" stroke-width="0.75" stroke-miterlimit="10"/>
<path d="M49.9633 40.2239C49.7478 40.4394 49.4733 40.5861 49.1745 40.6455C48.8756 40.705 48.5659 40.6745 48.2844 40.5579C48.0028 40.4413 47.7622 40.2438 47.5929 39.9905C47.4236 39.7371 47.3333 39.4393 47.3333 39.1346V37.5956C47.3333 37.1874 47.4954 36.796 47.784 36.5074C48.0726 36.2188 48.4641 36.0566 48.8722 36.0566C49.2804 36.0566 49.6718 36.2188 49.9604 36.5074C50.249 36.796 50.4112 37.1874 50.4112 37.5956V39.1346C50.415 39.3371 50.3773 39.5383 50.3003 39.7257C50.2232 39.9131 50.1085 40.0827 49.9633 40.2239ZM49.9633 59.7168C49.7478 59.9322 49.4733 60.0789 49.1745 60.1384C48.8756 60.1978 48.5659 60.1673 48.2844 60.0507C48.0028 59.9341 47.7622 59.7367 47.5929 59.4833C47.4236 59.23 47.3333 58.9321 47.3333 58.6274V44.7768C47.3333 44.3687 47.4954 43.9772 47.784 43.6886C48.0726 43.4 48.4641 43.2379 48.8722 43.2379C49.2804 43.2379 49.6718 43.4 49.9604 43.6886C50.249 43.9772 50.4112 44.3687 50.4112 44.7768V58.6222C50.4157 58.8256 50.3782 59.0278 50.3012 59.2161C50.2241 59.4044 50.1091 59.5749 49.9633 59.7168Z" fill="white" stroke="white" stroke-width="0.75" stroke-miterlimit="10"/>
<path d="M66.4266 45.5947C67.7845 47.3377 68.4629 49.3735 68.4618 51.7021C68.4606 54.0307 67.7822 56.0665 66.4266 57.8095C65.0698 59.5502 63.3544 60.4211 61.2806 60.4222C59.2067 60.4234 57.492 59.5525 56.1363 57.8095C54.7795 56.0688 54.1005 54.0341 54.0994 51.7055C54.0982 49.3769 54.7772 47.3411 56.1363 45.5981C57.492 43.8563 59.2067 42.9854 61.2806 42.9854C63.3544 42.9854 65.0698 43.8551 66.4266 45.5947ZM64.1199 55.757C64.9637 54.6987 65.3862 53.3471 65.3873 51.7021C65.3885 50.0571 64.966 48.7054 64.1199 47.6472C63.276 46.5889 62.3302 46.0598 61.2823 46.0598C60.2344 46.0598 59.2886 46.5889 58.4448 47.6472C57.6009 48.7043 57.179 50.0559 57.179 51.7021C57.179 53.3482 57.6009 54.6999 58.4448 55.757C59.2897 56.8152 60.2356 57.3443 61.2823 57.3443C62.329 57.3443 63.2749 56.8152 64.1199 55.757Z" fill="white" stroke="white" stroke-width="0.75" stroke-miterlimit="10"/>
<path d="M74.1233 59.7166C73.9081 59.9323 73.6336 60.0792 73.3348 60.1388C73.036 60.1984 72.7262 60.1679 72.4447 60.0512C72.1632 59.9346 71.9226 59.7369 71.7536 59.4834C71.5845 59.2299 71.4945 58.9319 71.495 58.6272V44.7766C71.492 44.4941 71.5676 44.2163 71.7133 43.9742C71.8591 43.7321 72.0691 43.5353 72.3202 43.4057C72.5712 43.276 72.8534 43.2187 73.1351 43.24C73.4168 43.2613 73.6871 43.3605 73.9158 43.5264C74.1753 43.7081 74.3718 43.9662 74.4778 44.2648C75.0527 43.859 75.6843 43.5403 76.3522 43.3189C77.0612 43.0887 77.8028 42.9748 78.5482 42.9817C79.2706 42.9743 79.986 43.1238 80.6449 43.42C81.3038 43.7161 81.8905 44.1519 82.3645 44.6971C83.4112 45.8395 83.9346 47.2338 83.9346 48.8799V58.622C83.9346 59.0302 83.7724 59.4216 83.4838 59.7102C83.1952 59.9988 82.8038 60.161 82.3956 60.161C81.9874 60.161 81.596 59.9988 81.3074 59.7102C81.0188 59.4216 80.8566 59.0302 80.8566 58.622V48.8799C80.8566 48.005 80.6215 47.3133 80.1511 46.8049C79.9531 46.5723 79.7076 46.3847 79.4312 46.2547C79.1547 46.1247 78.8537 46.0552 78.5482 46.051C78.1559 46.0523 77.7664 46.1171 77.3949 46.2429C77.0425 46.3557 76.7078 46.5175 76.4006 46.7237C76.1132 46.9236 75.8399 47.1431 75.5827 47.3807C75.3622 47.5772 75.1586 47.7918 74.974 48.0223L74.5729 48.5514V58.622C74.5771 58.8256 74.5394 59.0278 74.4621 59.2161C74.3847 59.4044 74.2694 59.5748 74.1233 59.7166Z" fill="white" stroke="white" stroke-width="0.75" stroke-miterlimit="10"/>
<path d="M98.0115 40.2239C97.7961 40.4394 97.5215 40.5861 97.2227 40.6455C96.9238 40.705 96.6141 40.6745 96.3326 40.5579C96.0511 40.4413 95.8105 40.2438 95.6412 39.9905C95.4719 39.7371 95.3815 39.4393 95.3815 39.1346V37.5956C95.3815 37.1874 95.5436 36.796 95.8322 36.5074C96.1208 36.2188 96.5123 36.0566 96.9204 36.0566C97.3286 36.0566 97.72 36.2188 98.0086 36.5074C98.2972 36.796 98.4594 37.1874 98.4594 37.5956V39.1346C98.4633 39.3371 98.4255 39.5383 98.3485 39.7257C98.2714 39.9131 98.1568 40.0827 98.0115 40.2239ZM98.0115 59.7168C97.7961 59.9322 97.5215 60.0789 97.2227 60.1384C96.9238 60.1978 96.6141 60.1673 96.3326 60.0507C96.0511 59.9341 95.8105 59.7367 95.6412 59.4833C95.4719 59.23 95.3815 58.9321 95.3815 58.6274V44.7768C95.3815 44.3687 95.5436 43.9772 95.8322 43.6886C96.1208 43.4 96.5123 43.2379 96.9204 43.2379C97.3286 43.2379 97.72 43.4 98.0086 43.6886C98.2972 43.9772 98.4594 44.3687 98.4594 44.7768V58.6222C98.4639 58.8256 98.4264 59.0278 98.3494 59.2161C98.2723 59.4044 98.1573 59.5749 98.0115 59.7168Z" fill="white" stroke="white" stroke-width="0.75" stroke-miterlimit="10"/>
<path d="M104.619 59.7169C104.403 59.9327 104.128 60.0795 103.829 60.1388C103.529 60.198 103.219 60.1671 102.937 60.0498C102.656 59.9326 102.415 59.7343 102.246 59.4802C102.077 59.2261 101.988 58.9275 101.989 58.6223V44.7717C101.986 44.4895 102.062 44.2121 102.208 43.9704C102.354 43.7287 102.564 43.5322 102.815 43.4027C103.066 43.2731 103.347 43.2157 103.629 43.2367C103.91 43.2577 104.181 43.3563 104.409 43.5216C104.668 43.7038 104.864 43.9618 104.97 44.2599C105.545 43.8542 106.177 43.5354 106.846 43.3141C107.555 43.0837 108.296 42.9698 109.042 42.9769C109.764 42.9692 110.479 43.1186 111.138 43.4148C111.797 43.711 112.383 44.1469 112.856 44.6922C113.904 45.8346 114.428 47.2289 114.428 48.875V58.6223C114.428 59.0305 114.266 59.4219 113.977 59.7105C113.689 59.9992 113.297 60.1613 112.889 60.1613C112.481 60.1613 112.09 59.9992 111.801 59.7105C111.512 59.4219 111.35 59.0305 111.35 58.6223V48.8802C111.35 48.0053 111.115 47.3136 110.645 46.8052C110.447 46.5726 110.201 46.385 109.925 46.255C109.648 46.125 109.347 46.0555 109.042 46.0513C108.65 46.0526 108.26 46.1174 107.888 46.2433C107.536 46.3553 107.201 46.5172 106.894 46.724C106.606 46.9235 106.333 47.143 106.076 47.381C105.855 47.577 105.652 47.7917 105.468 48.0226C105.328 48.2041 105.194 48.3805 105.066 48.5517V58.6223C105.071 58.8257 105.033 59.0277 104.956 59.216C104.879 59.4043 104.764 59.5747 104.619 59.7169Z" fill="white" stroke="white" stroke-width="0.75" stroke-miterlimit="10"/>
<path d="M121.504 39.1982C121.288 38.9828 121.141 38.7082 121.082 38.4092C121.022 38.1102 121.053 37.8003 121.17 37.5187C121.286 37.2372 121.484 36.9967 121.738 36.8277C121.992 36.6588 122.29 36.569 122.595 36.5698H138.503C138.911 36.5698 139.303 36.732 139.592 37.0206C139.88 37.3092 140.042 37.7006 140.042 38.1088C140.042 38.5169 139.88 38.9084 139.592 39.197C139.303 39.4856 138.911 39.6477 138.503 39.6477H132.076V58.6219C132.083 58.8282 132.048 59.0338 131.974 59.2264C131.9 59.4191 131.788 59.5948 131.644 59.7432C131.501 59.8916 131.329 60.0097 131.139 60.0903C130.949 60.1708 130.744 60.2124 130.538 60.2124C130.331 60.2124 130.127 60.1708 129.937 60.0903C129.747 60.0097 129.575 59.8916 129.432 59.7432C129.288 59.5948 129.176 59.4191 129.102 59.2264C129.028 59.0338 128.993 58.8282 129 58.6219V39.6477H122.595C122.392 39.6513 122.191 39.6133 122.003 39.536C121.815 39.4586 121.645 39.3437 121.504 39.1982Z" fill="white" stroke="white" stroke-width="0.75" stroke-miterlimit="10"/>
<path d="M141.387 52.4712C141.515 53.9698 141.959 55.156 142.717 56.0298C143.476 56.9037 144.304 57.3417 145.202 57.344C145.658 57.346 146.112 57.2813 146.549 57.1521C146.914 57.0501 147.263 56.8989 147.586 56.7025C147.859 56.5276 148.112 56.3235 148.34 56.0938C148.512 55.9285 148.673 55.7517 148.821 55.5647C148.906 55.4471 148.982 55.3347 149.046 55.2275C149.302 54.7589 149.738 54.522 150.36 54.522C150.441 54.5221 150.522 54.5332 150.6 54.5549C150.675 54.5756 150.754 54.5981 150.841 54.6188C150.921 54.6384 150.997 54.6711 151.066 54.7157C151.317 54.8355 151.528 55.0273 151.67 55.2668C151.813 55.5062 151.881 55.7827 151.866 56.061C151.869 56.3094 151.802 56.5536 151.674 56.7665C151.6 56.9355 151.508 57.0966 151.401 57.2472C151.168 57.5557 150.917 57.8502 150.649 58.129C150.27 58.5407 149.845 58.9069 149.381 59.2201C148.818 59.5782 148.209 59.8586 147.571 60.0536C146.805 60.3019 146.004 60.4263 145.198 60.4219C143.168 60.4219 141.507 59.5614 140.213 57.8403C138.92 56.1192 138.274 54.0742 138.277 51.7052V51.4285C138.277 51.3321 138.282 51.2357 138.292 51.1398C138.303 51.0445 138.309 50.9487 138.309 50.8527C138.309 50.7607 138.319 50.669 138.341 50.5795C138.532 48.463 139.259 46.6676 140.521 45.1932C141.783 43.7188 143.344 42.9816 145.202 42.9816C145.908 42.977 146.609 43.091 147.277 43.3188C147.942 43.5497 148.561 43.8969 149.105 44.3442C149.687 44.8231 150.19 45.3909 150.595 46.0266C151.05 46.7422 151.385 47.5271 151.588 48.3506C151.786 49.1967 151.883 50.0633 151.876 50.9323C151.878 51.1391 151.835 51.3438 151.749 51.532C151.663 51.7202 151.537 51.8873 151.38 52.0216C151.104 52.2977 150.733 52.4584 150.343 52.4712H141.387ZM141.674 49.3933H148.664C148.605 49.0922 148.52 48.797 148.408 48.5114C148.281 48.2061 148.131 47.9112 147.958 47.6296C147.295 46.584 146.377 46.0606 145.202 46.0595C144.919 46.0604 144.638 46.1035 144.368 46.1874C144.077 46.279 143.801 46.4142 143.551 46.5886C143.275 46.7774 143.027 47.0038 142.814 47.2613C142.571 47.5556 142.356 47.8723 142.172 48.2071C141.964 48.5833 141.797 48.981 141.674 49.3933Z" fill="white" stroke="white" stroke-width="0.75" stroke-miterlimit="10"/>
<path d="M167.339 54.5223C167.591 54.6425 167.801 54.8346 167.944 55.0743C168.087 55.314 168.155 55.5907 168.141 55.8693C168.124 56.1254 168.059 56.376 167.949 56.6077C167.359 57.7061 166.518 58.6503 165.495 59.364C164.506 60.0614 163.323 60.4315 162.113 60.4222C160.062 60.4222 158.374 59.5513 157.048 57.8095C155.723 56.0676 155.06 54.033 155.06 51.7055C155.06 49.3758 155.723 47.34 157.048 45.5981C158.374 43.8563 160.062 42.9854 162.113 42.9854C162.861 42.9851 163.602 43.132 164.294 43.4176C164.979 43.6948 165.614 44.0853 166.17 44.5727C166.727 45.0676 167.217 45.6332 167.627 46.2552C167.669 46.3165 167.707 46.3806 167.74 46.4471C167.773 46.514 167.8 46.5841 167.819 46.6564C167.841 46.7243 167.857 46.7937 167.87 46.8639C167.9 47.0616 167.89 47.2636 167.838 47.457C167.804 47.5751 167.761 47.6907 167.711 47.8028C167.655 47.9223 167.579 48.0312 167.486 48.1244C167.393 48.2174 167.29 48.2992 167.178 48.3682C166.935 48.5412 166.643 48.6309 166.344 48.6242C166.087 48.6327 165.832 48.5717 165.606 48.4476C165.38 48.3234 165.192 48.1407 165.061 47.9187C164.254 46.6794 163.271 46.0598 162.111 46.0598C161.106 46.0598 160.193 46.5889 159.371 47.6472C158.549 48.7054 158.138 50.0582 158.138 51.7055C158.138 53.3517 158.549 54.7033 159.372 55.7604C160.196 56.8175 161.109 57.3466 162.113 57.3478C162.733 57.3406 163.336 57.1452 163.842 56.7875C164.442 56.3627 164.927 55.7952 165.253 55.1362C165.373 54.8842 165.565 54.6735 165.805 54.5307C166.045 54.3879 166.322 54.3194 166.6 54.3339C166.73 54.3346 166.859 54.3509 166.984 54.3823C167.109 54.4113 167.228 54.4585 167.339 54.5223Z" fill="white" stroke="white" stroke-width="0.75" stroke-miterlimit="10"/>
<path d="M171.622 37.0181C171.837 36.8023 172.112 36.6553 172.411 36.5958C172.71 36.5363 173.02 36.5669 173.301 36.6838C173.583 36.8007 173.823 36.9985 173.992 37.2523C174.161 37.5061 174.251 37.8043 174.25 38.1092V44.2702C175.449 43.4223 176.885 42.9735 178.354 42.9872C179.076 42.9797 179.791 43.1292 180.45 43.4254C181.109 43.7216 181.696 44.1573 182.17 44.7025C183.217 45.8449 183.74 47.2392 183.74 48.8853V58.6223C183.74 58.8243 183.7 59.0245 183.623 59.2112C183.545 59.3979 183.432 59.5676 183.289 59.7105C183.146 59.8534 182.977 59.9667 182.79 60.0441C182.603 60.1214 182.403 60.1612 182.201 60.1612C181.999 60.1612 181.799 60.1214 181.612 60.0441C181.425 59.9667 181.256 59.8534 181.113 59.7105C180.97 59.5676 180.857 59.3979 180.779 59.2112C180.702 59.0245 180.662 58.8243 180.662 58.6223V48.8801C180.662 48.0052 180.427 47.3135 179.957 46.8051C179.758 46.5725 179.513 46.3849 179.237 46.2549C178.96 46.1249 178.659 46.0555 178.354 46.0512C177.698 46.0611 177.057 46.2436 176.495 46.5804C175.985 46.8507 175.515 47.1905 175.099 47.5902C174.796 47.9033 174.512 48.2354 174.25 48.5845V58.6136C174.25 59.0218 174.088 59.4132 173.8 59.7018C173.511 59.9904 173.119 60.1526 172.711 60.1526C172.303 60.1526 171.912 59.9904 171.623 59.7018C171.335 59.4132 171.172 59.0218 171.172 58.6136V38.1092C171.169 37.9062 171.207 37.7047 171.284 37.517C171.361 37.3293 171.476 37.1595 171.622 37.0181Z" fill="white" stroke="white" stroke-width="0.75" stroke-miterlimit="10"/>
</svg>
