<svg height='100px' width='100px'  fill="#000000" xmlns:dc="https://purl.org/dc/elements/1.1/" xmlns:cc="https://creativecommons.org/ns#" xmlns:rdf="https://www.w3.org/1999/02/22-rdf-syntax-ns#" xmlns:svg="https://www.w3.org/2000/svg" xmlns="https://www.w3.org/2000/svg" xmlns:sodipodi="https://sodipodi.sourceforge.net/DTD/sodipodi-0.dtd" xmlns:inkscape="https://www.inkscape.org/namespaces/inkscape" version="1.1" xml:space="preserve" viewBox="0 0 32 32" x="0px" y="0px"><g><path style="color:#000000;font-style:normal;font-variant:normal;font-weight:normal;font-stretch:normal;font-size:medium;line-height:normal;font-family:sans-serif;font-variant-ligatures:normal;font-variant-position:normal;font-variant-caps:normal;font-variant-numeric:normal;font-variant-alternates:normal;font-feature-settings:normal;text-indent:0;text-align:start;text-decoration:none;text-decoration-line:none;text-decoration-style:solid;text-decoration-color:#000000;letter-spacing:normal;word-spacing:normal;text-transform:none;writing-mode:lr-tb;direction:ltr;text-orientation:mixed;dominant-baseline:auto;baseline-shift:baseline;text-anchor:start;white-space:normal;shape-padding:0;clip-rule:nonzero;display:inline;overflow:visible;visibility:visible;opacity:1;isolation:auto;mix-blend-mode:normal;color-interpolation:sRGB;color-interpolation-filters:linearRGB;solid-color:#000000;solid-opacity:1;vector-effect:none;fill:#000000;fill-opacity:1;fill-rule:nonzero;stroke:none;stroke-width:1.99999988;stroke-linecap:butt;stroke-linejoin:round;stroke-miterlimit:4;stroke-dasharray:none;stroke-dashoffset:0;stroke-opacity:1;paint-order:normal;color-rendering:auto;image-rendering:auto;shape-rendering:auto;text-rendering:auto;enable-background:accumulate" d="m 15.999999,1.9999987 c -7.7201395,-6e-6 -14.0000095,6.279845 -13.9999995,14.0000023 1e-5,7.72014 6.27987,14 13.9999995,14 7.72014,0 13.99999,-6.27986 14,-14 10e-6,-7.7201563 -6.27985,-14.0000093 -14,-14.0000023 z m 0,2 c 0.33907,-10e-7 0.73084,0.171637 1.20703,0.695312 0.4762,0.523675 0.97271,1.375918 1.39453,2.472656 0.41222,1.071765 0.75478,2.375284 0.99805,3.8320343 h -7.19922 c 0.24327,-1.4567503 0.58583,-2.7602693 0.99805,-3.8320343 0.42182,-1.096738 0.91834,-1.948981 1.39453,-2.472656 0.47619,-0.523675 0.86796,-0.695313 1.20703,-0.695312 z m -3.54297,0.53125 c -0.34366,0.570258 -0.65221,1.206682 -0.92578,1.917968 -0.50437,1.31138 -0.8977,2.853884 -1.16016,4.5507843 H 5.0976595 c 1.41176,-3.0803453 4.07836,-5.4598043 7.3593695,-6.4687523 z m 7.08399,0 c 3.28183,1.008633 5.94931,3.387844 7.36133,6.4687523 h -5.2754 c -0.26245,-1.6968803 -0.65383,-3.2394163 -1.1582,-4.5507843 -0.27368,-0.711563 -0.58391,-1.347547 -0.92773,-1.917968 z M 4.3906295,13.000001 h 5.7421795 c -0.0847,0.96719 -0.1328095,1.96781 -0.1328095,3 0,1.03149 0.0482,2.03319 0.1328095,3 H 4.3906295 c -0.24649,-0.95994 -0.39063,-1.96196 -0.39063,-3 0,-1.03838 0.14399,-2.03979 0.39063,-3 z m 7.7636695,0 h 7.6914 c 0.0919,0.96488 0.1543,1.959 0.1543,3 0,1.04028 -0.0625,2.03546 -0.1543,3 h -7.6914 c -0.0918,-0.96454 -0.1543,-1.95972 -0.1543,-3 0,-1.041 0.0624,-2.03512 0.1543,-3 z m 9.71289,0 h 5.74023 c 0.24668,0.96028 0.39258,1.96154 0.39258,3 0,1.03813 -0.14605,2.03999 -0.39258,3 h -5.74023 c 0.0846,-0.96681 0.13281,-1.96851 0.13281,-3 0,-1.03219 -0.0481,-2.03281 -0.13281,-3 z m -16.7695295,8 h 5.2734295 c 0.26246,1.69815 0.6556,3.24087 1.16016,4.55273 0.2732,0.71031 0.58075,1.34828 0.92383,1.91797 -3.2803595,-1.00932 -5.9459795,-3.39068 -7.3574195,-6.4707 z m 7.3027295,0 h 7.19922 c -0.24329,1.458 -0.58564,2.76174 -0.99805,3.83398 -0.42182,1.09674 -0.91833,1.94898 -1.39453,2.47266 -0.47619,0.52367 -0.86796,0.69336 -1.20703,0.69336 -0.33907,0 -0.73084,-0.16969 -1.20703,-0.69336 -0.47619,-0.52368 -0.97271,-1.37592 -1.39453,-2.47266 -0.4124,-1.07224 -0.75476,-2.37598 -0.99805,-3.83398 z m 9.22656,0 h 5.2754 c -1.41171,3.08058 -4.07819,5.4617 -7.35938,6.4707 0.34325,-0.56985 0.65248,-1.20738 0.92578,-1.91797 0.50456,-1.31185 0.89575,-2.8546 1.1582,-4.55273 z"></path></g></svg>