<svg height="100" width="100" xmlns="http://www.w3.org/2000/svg" data-name="Layer 1"><path d="M50 0A50 50 0 110 50 50 50 0 0150 0zm36.73 23.78a66.7 66.7 0 01-12.23 6.47 63.37 63.37 0 013.17 17.26h17.39a45.08 45.08 0 00-8.33-23.73zm-73.44 0A45 45 0 005 47.52h17.33a63.4 63.4 0 013.17-17.27 66.63 66.63 0 01-12.22-6.47zm73.44 52.44a45 45 0 008.33-23.73H77.69a63.25 63.25 0 01-3 17.31 66.61 66.61 0 0112.04 6.42zM5 52.47a45.06 45.06 0 008.33 23.75 66.61 66.61 0 0112.04-6.42 63.28 63.28 0 01-3.05-17.33H5zm42.56 12.6V52.48H27.28C27 55.27 28.87 66 30 68.13a65.81 65.81 0 0117.52-3.05zM72.8 52.49H52.49v12.59A66 66 0 0170 68.15a58.54 58.54 0 002.8-15.66zm-25.27-5V34.92a66.09 66.09 0 01-17.36-3c-1.32 2.83-3.28 13.69-2.84 15.62h20.2zm22.36-15.6a66.19 66.19 0 01-17.4 3v12.63h20.29a58.66 58.66 0 00-2.89-15.63zM31.67 72.78a58.71 58.71 0 0015.85 21.83V70c-3.07-.2-12.77 1.49-15.85 2.78zm20.81 21.85a58.81 58.81 0 0015.87-21.89A61.5 61.5 0 0052.48 70v24.63zM31.85 27.28c3.57 1.34 13.27 3 15.67 2.69V5.88a58.77 58.77 0 00-15.67 21.4zm36.33 0a58.77 58.77 0 00-15.69-21.4V30a61.64 61.64 0 0015.69-2.69zm-40.95-1.62a64.36 64.36 0 015.6-10.45A67.79 67.79 0 0140.2 6a44.9 44.9 0 00-23.85 14 60.5 60.5 0 0010.88 5.66zM59.81 6a64.57 64.57 0 0113 19.67 60.13 60.13 0 0010.88-5.72A45 45 0 0059.81 6zm.68 87.83a44.7 44.7 0 0023.17-13.77A60.21 60.21 0 0073 74.41a65.35 65.35 0 01-12.51 19.41zM16.35 80.06a44.76 44.76 0 0023.18 13.77 65.23 65.23 0 01-12.48-19.42 61.07 61.07 0 00-10.7 5.65z" data-name="Go to Web"/></svg>