<svg height='100px' width='100px'  fill="#000000" xmlns="https://www.w3.org/2000/svg" xmlns:xlink="https://www.w3.org/1999/xlink" version="1.1" x="0px" y="0px" viewBox="0 0 100 100" style="enable-background:new 0 0 100 100;" xml:space="preserve"><style type="text/css">
	.st0{fill-rule:evenodd;clip-rule:evenodd;}
</style><path class="st0" d="M85.5,81.5h-70c-2.8,0-5-2.2-5-5v-4c0-2.8,2.2-5,5-5h70c2.8,0,5,2.2,5,5v4C90.5,79.3,88.3,81.5,85.5,81.5z   M85.5,57.5h-70c-2.8,0-5-2.2-5-5v-4c0-2.8,2.2-5,5-5h70c2.8,0,5,2.2,5,5v4C90.5,55.3,88.3,57.5,85.5,57.5z M85.5,33.5h-70  c-2.8,0-5-2.2-5-5v-4c0-2.8,2.2-5,5-5h70c2.8,0,5,2.2,5,5v4C90.5,31.3,88.3,33.5,85.5,33.5z"></path></svg>