<?xml version="1.0" encoding="UTF-8"?>
<svg width="12px" height="15px" viewBox="0 0 12 15" version="1.1" xmlns="https://www.w3.org/2000/svg" xmlns:xlink="https://www.w3.org/1999/xlink">
    <!-- Generator: Sketch 51.3 (57544) - https://www.bohemiancoding.com/sketch -->
    <title>local</title>
    <desc>Created with Sketch.</desc>
    <defs></defs>
    <g id="Page-1" stroke="none" stroke-width="1" fill="none" fill-rule="evenodd">
        <g id="local" fill="#000000" fill-rule="nonzero">
            <path d="M6,3.748 C5.00250512,3.74800008 4.10324884,4.34892995 3.72161756,5.27053377 C3.33998628,6.19213759 3.55115012,7.25288657 4.25662854,7.95807891 C4.96210696,8.66327125 6.0229415,8.87400484 6.94439046,8.49199979 C7.86583942,8.10999474 8.4664045,7.2104948 8.466,6.213 C8.46434596,4.85191343 7.36108713,3.74910198 6,3.748 Z M6,7.679 C5.19035056,7.679 4.534,7.02264944 4.534,6.213 C4.534,5.40335056 5.19035056,4.747 6,4.747 C6.80964944,4.747 7.466,5.40335056 7.466,6.213 C7.46489831,7.02219267 6.80919267,7.67789831 6,7.679 Z" id="Shape"></path>
            <path d="M6,0.934 C3.22022182,0.93344069 0.96461715,3.18322964 0.958,5.963 C0.958,11.172 5.509,14.6 5.703,14.744 L6.003,14.963 L6.303,14.745 C6.497,14.603 11.05,11.205 11.05,5.963 C11.0433798,3.18010324 8.78290019,0.929023639 6,0.934 Z M6,13.7 C5.021,12.864 1.957,9.932 1.957,5.964 C1.957,3.73166504 3.76666504,1.922 5.999,1.922 C8.23133496,1.922 10.041,3.73166504 10.041,5.964 C10.042,9.955 6.98,12.869 6,13.7 Z" id="Shape"></path>
        </g>
    </g>
</svg>