<?xml version="1.0" encoding="utf-8"?>
<!-- Generator: Adobe Illustrator 23.0.3, SVG Export Plug-In . SVG Version: 6.00 Build 0)  -->
<svg version="1.1" id="Layer_1" xmlns="https://www.w3.org/2000/svg" xmlns:xlink="https://www.w3.org/1999/xlink" x="0px" y="0px"
	 viewBox="0 0 589.2 589.2" style="enable-background:new 0 0 589.2 589.2;" xml:space="preserve">
<style type="text/css">
	.st0{fill:#FFFFFF;}
	.st1{fill:#272424;}
	.st2{fill:#EB292C;}
	.st3{fill:#EB2A2D;}
	.st4{fill:#E81F25;}
	.st5{fill:#E71F25;}
	.st6{fill:#010101;}
	.st7{fill:#E91F25;}
</style>
<circle class="st0" cx="294.6" cy="294.4" r="273.4"/>
<g>
	<g>
		<path class="st1" d="M293.5,1096.6c-19-0.1-33.9-15.3-33.9-34.2c0-18.6,15.7-34.1,34.6-33.7c18.4,0.3,33.7,15.8,33.4,34.4
			C327.3,1081.7,312.1,1096.7,293.5,1096.6z M323.7,1071.1c0.1-0.1,0.1-0.2,0.2-0.4c2.8-11.3,0.2-21.3-7.7-29.7
			c-7-7.4-15.9-10.4-26.2-9.5c0,12.6,0,25.1,0.1,37.5c0,0.6,0.8,1.1,1.3,1.7c0.4-0.6,0.9-1.1,1.3-1.7c0.2-0.3,0-0.7,0-1.1
			c0-2.3,0-4.6,0-6.8c0-1,0.2-2,1.3-2c1.3,0,1.4,1,1.4,2c0,2.3,0,4.7,0,7c0,1.1-0.1,2.6,1.3,2.5c1.4,0,1.3-1.5,1.3-2.6
			c0-4.8,0-9.5,0-14.3c0-0.9,0.2-1.7,1.4-1.7c1,0,1.4,0.6,1.4,1.6c0,5.3,0,10.6,0,15.9c0,1.6-1.8,3.9-2.9,3.9c-2.8,0-5.5,0-8.3-0.1
			c-0.1,0-0.2-0.1-0.3-0.1c-1.3-1.3-2.2-2.8-2.2-4.9c0-11.5,0-23,0-34.5c0-0.6,0-1.2,0-2.1c-2.5,0.9-4.8,1.6-7,2.6
			c-12,5.6-19.5,18.8-17.6,32.3c1.2,8.4,5,15.4,11.8,20.6c0.1,0.1,0.2,0.2,0.4,0.3c0.5,0.3,1,0.7,1.5,1.1c0.2,0.2,0.4,0.3,0.6,0.4
			c0,0.1,0.1,0.1,0.2,0.1c4,2.9,8.7,4.1,13.5,4.9c2.4,0.4,5-0.1,7.5-0.4c4-0.4,7.8-1.8,11.3-3.8c6.5-3.9,11.3-9.3,13.8-16.5
			c0-0.1,0.1-0.2,0.1-0.3C323.3,1072.3,323.5,1071.7,323.7,1071.1z"/>
		<path class="st2" d="M274.4,1087c0-10.1,0-20.2,0-30.4c0-0.6,0-1.2,0-1.8c-0.9,0-1.7,0-2.6,0c0,0.4-0.1,0.7-0.1,1
			c0,0.9-0.6,1.5-1.4,1.2c-0.5-0.2-1.1-0.8-1.2-1.3c-0.2-1.2-0.1-2.4-0.1-3.7c4.5,0,9,0,13.6,0c0,1.1,0,2.2,0,3.3
			c0,0.9-0.2,1.7-1.4,1.7c-1.1,0-1.4-0.8-1.4-1.7c0-0.2,0-0.3-0.1-0.6c-0.8,0-1.6,0-2.6,0c0,11.5,0,22.9,0,34.4
			c-0.1,0-0.1,0-0.2-0.1c-0.2-0.2-0.4-0.3-0.6-0.4c-0.5-0.3-1-0.7-1.5-1.1C274.6,1087.3,274.5,1087.2,274.4,1087z"/>
		<path class="st3" d="M322.7,1073.2c-3.8,0-7.6,0-11.5,0c-0.1,0-0.2,0-0.3,0c-1-0.8-2.2-1.3-2.8-2.3c-1.1-1.7-1.9-3.6-2.8-5.5
			c-0.9-1.8-0.9-3.7,0-5.5c0.9-1.8,1.8-3.6,2.7-5.4c0.9-1.8,2.2-2.6,4.2-2.6c1.4,0,2.9,0,4.3,0c1,0,1.7,0.2,1.7,1.4
			c0,1.2-0.8,1.3-1.7,1.4c-1.3,0-2.6,0-4,0c-1.1,0-1.8,0.3-2.2,1.3c-0.7,1.6-1.6,3.2-2.4,4.8c-0.6,1.2-0.6,2.4,0,3.6
			c0.8,1.5,1.6,3.1,2.3,4.7c0.5,1.1,1.3,1.5,2.5,1.5c3.5,0,7.1,0,10.6,0.1c0.1,0.1,0.2,0.2,0.3,0.3c-0.2,0.6-0.4,1.3-0.6,1.9
			C323,1073.1,322.9,1073.1,322.7,1073.2z"/>
		<path class="st4" d="M276.2,1088.6c0.2,0.2,0.4,0.3,0.6,0.4C276.6,1088.9,276.4,1088.7,276.2,1088.6z"/>
		<path class="st5" d="M323.7,1071.1c-0.1-0.1-0.2-0.2-0.3-0.3c0.2,0,0.3,0,0.5,0C323.8,1070.8,323.8,1070.9,323.7,1071.1z"/>
		<path class="st4" d="M274.4,1087c0.1,0.2,0.2,0.4,0.3,0.6c-0.1-0.1-0.2-0.2-0.4-0.3C274.3,1087.1,274.3,1087.1,274.4,1087z"/>
		<path class="st6" d="M289.6,1073.2c-0.1,0-0.2-0.1-0.3-0.1C289.4,1073.2,289.5,1073.2,289.6,1073.2z"/>
		<path class="st7" d="M322.7,1073.2c0.1-0.1,0.2-0.2,0.4-0.3c0,0.1-0.1,0.2-0.1,0.3C322.9,1073.3,322.8,1073.3,322.7,1073.2z"/>
		<path class="st7" d="M311,1073.2c0.1,0,0.2,0,0.3,0l-0.1,0L311,1073.2z"/>
	</g>
</g>
<g>
	<g>
		<path class="st1" d="M293.6,579.1C134.7,577.9,9.8,451,10.1,292.5C10.4,137,141.2,7.5,299.6,10.2c154,2.6,282,131.8,279.5,288.3
			C576.6,454.4,449.7,580.2,293.6,579.1z M546.5,365.3c0.5-1,1-2.1,1.5-3.1c23.5-94.7,2.1-178.6-64.5-249
			c-59-62.3-133.3-87-219.6-79.8c0,105.7-0.1,209.9,0.5,314.2c0,4.8,6.9,9.5,10.5,14.2c3.6-4.8,7.8-9.3,10.7-14.5
			c1.3-2.4,0.3-6.1,0.3-9.2c0-19.1,0-38.2,0-57.2c0-8.1,1.5-16.4,11.2-16.6c10.5-0.3,12.1,8.3,12,16.9c0,19.5,0,39,0,58.6
			c0,9.2-0.9,21.5,11.2,21.3c11.9-0.2,10.8-12.6,10.8-21.8c0-39.9,0-79.9,0-119.8c0-7.8,1.9-14.4,11.6-14.2
			c8.4,0.1,11.6,5.2,11.6,13c0,44.4,0.2,88.8-0.2,133.1c-0.1,13-15.1,32.5-24.1,32.6c-23.1,0.1-46.1-0.3-69.2-0.5
			c-0.8-0.2-1.6-0.4-2.4-0.6c-11.1-11.3-18.5-23.8-18.4-40.6c0.3-96.3,0.2-192.7,0.2-289c0-4.8,0-9.7,0-17.2
			c-20.7,7.7-40.1,13.5-58.4,22C81.5,104.9,18.7,215.5,34.5,328.1c9.9,70.7,41.9,128.6,98.5,172.6c1,0.8,2,1.6,3,2.4
			c4.3,3,8.6,5.9,12.9,8.9c1.7,1.3,3.5,2.5,5.2,3.8c0.3,0.7,0.9,1,1.6,1c33.5,24.5,73,34.1,112.6,40.8c20.2,3.4,41.9-1,62.7-3.2
			c33.8-3.4,65.2-14.9,94.3-32.1c54.8-32.3,94.4-77.5,115.3-138.1c0.3-0.9,0.6-1.8,0.8-2.8C543.1,376,544.8,370.6,546.5,365.3z"/>
		<path class="st2" d="M133.6,498.4c-0.1-84.7-0.3-169.5-0.4-254.2c0-4.8,0-9.6,0-15.3c-7.6,0-14.4,0-21.6,0c-0.4,3.1-0.9,5.7-1,8.3
			c-0.4,7.7-4.8,12.4-11.9,10.3c-4.3-1.3-9.6-6.6-10.3-10.7c-1.5-9.9-0.5-20.1-0.5-30.9c38,0,75.1,0,113.5,0c0,9.4,0.1,18.6,0,27.8
			c-0.1,7.6-1.3,14.5-11.4,14.3c-9.6-0.2-11.7-6.2-11.6-14.3c0-1.3-0.3-2.6-0.6-4.7c-6.8,0-13.6,0-22.2,0c0,96.2,0,191.9,0,287.6
			c-0.8,0-1.3-0.3-1.6-1c-1.7-1.3-3.5-2.5-5.2-3.8c-4.3-3-8.6-5.9-12.9-8.9C135.2,501.5,134.4,500,133.6,498.4z"/>
		<path class="st3" d="M538.3,383.5c-32,0-64-0.1-96-0.1c-0.8-0.1-1.6-0.2-2.4-0.3c-8-6.3-18.1-11.2-23.4-19.3
			c-9.3-14.3-15.9-30.4-23.2-45.9c-7.2-15.2-7.2-30.8,0.1-46c7.3-15.1,15.1-30,22.3-45.1c7.1-14.9,18.8-21.6,35-21.5
			c12,0.1,24,0.1,35.9,0c8-0.1,14.4,2.1,14.4,11.5c0.1,9.7-6.9,11.3-14.6,11.4c-11.1,0.1-22.2,0.3-33.2-0.1
			c-8.9-0.3-14.9,2.6-18.8,11.2c-6.1,13.7-13.1,27-19.9,40.3c-5.2,10.2-5.5,20,0,30.3c6.8,12.9,13.4,25.9,19.2,39.3
			c4.2,9.5,10.7,12.8,20.8,12.8c29.7-0.2,59.4,0.3,89.1,0.5c0.9,0.9,1.8,1.8,2.8,2.7c-1.7,5.3-3.3,10.7-5,16
			C540.4,382,539.4,382.8,538.3,383.5z"/>
		<path class="st4" d="M148.9,511.9c1.7,1.3,3.5,2.5,5.2,3.8C152.3,514.4,150.6,513.1,148.9,511.9z"/>
		<path class="st5" d="M546.5,365.3c-0.9-0.9-1.8-1.8-2.8-2.7c1.4-0.1,2.9-0.2,4.3-0.4C547.5,363.2,547,364.2,546.5,365.3z"/>
		<path class="st4" d="M133.6,498.4c0.8,1.5,1.6,3,2.3,4.6c-1-0.8-2-1.6-3-2.4C133,499.9,133.2,499.1,133.6,498.4z"/>
		<path class="st6" d="M261.1,383.5c-0.8-0.2-1.6-0.4-2.4-0.6C259.5,383.1,260.3,383.3,261.1,383.5z"/>
		<path class="st7" d="M538.3,383.5c1-0.7,2.1-1.5,3.1-2.2c-0.3,0.9-0.6,1.8-0.8,2.8C539.8,384,539.1,383.9,538.3,383.5z"/>
		<path class="st7" d="M439.9,383.1c0.8,0.1,1.6,0.2,2.4,0.3l-1.3,0.3L439.9,383.1z"/>
	</g>
</g>
</svg>
