<svg width="122" height="122" viewBox="0 0 122 122" fill="none" xmlns="http://www.w3.org/2000/svg">
<path d="M60.9999 5.19108C91.7744 5.19108 116.809 30.2285 116.809 61C116.809 91.7714 91.7714 116.809 60.9999 116.809C30.2285 116.809 5.19102 91.7745 5.19102 61C5.19102 30.2255 30.2254 5.19108 60.9999 5.19108ZM60.9999 3.88873C29.4568 3.88873 3.88867 29.4569 3.88867 61C3.88867 92.5431 29.4568 118.111 60.9999 118.111C92.543 118.111 118.111 92.5431 118.111 61C118.111 29.4569 92.543 3.88873 60.9999 3.88873Z" fill="black"/>
<path d="M39.4762 73.505V52.6643H35.3069V48.495H47.8119V52.6643H43.6425V73.505H39.4732H39.4762Z" fill="black"/>
<path d="M50.5813 73.505V48.498H54.7506V69.3387H58.92V48.498H63.0894V69.3387H67.2587V48.498H71.4281V73.505H50.5874H50.5813Z" fill="black"/>
<path d="M74.1882 73.505V48.498H86.6932V56.8337H82.5239V52.6643H78.3545V69.3356H82.5239V65.1663H86.6932V73.502H74.1882V73.505Z" fill="black"/>
<path d="M12.5568 57.6297L18.2878 57.9164L18.1932 59.8257L12.4623 59.5421L12.383 61.1128L10.7634 61.0335L11.0135 55.9827L12.6331 56.062L12.5538 57.6328L12.5568 57.6297Z" fill="black"/>
<path d="M13.4964 50.7337L13.1151 52.9755L14.329 53.1798L14.6889 51.0631L16.2871 51.3346L15.9272 53.4513L17.1777 53.6648L17.559 51.423L19.1572 51.6945L18.4557 55.8211L11.1997 54.592L11.8982 50.4653L13.4964 50.7368V50.7337Z" fill="black"/>
<path d="M16.2656 44.167C15.619 44.4293 15.1981 44.8716 15.006 45.4938C14.9206 45.7683 14.8931 46.0367 14.9206 46.299C14.948 46.5613 15.0212 46.8053 15.1402 47.0249C15.2591 47.2445 15.4208 47.4397 15.6282 47.6105C15.8356 47.7813 16.0735 47.9063 16.348 47.9917C16.6286 48.0771 16.9 48.1107 17.1654 48.0863C17.4307 48.0619 17.6778 47.9948 17.9035 47.8758C18.1292 47.7599 18.3305 47.6013 18.5013 47.4031C18.6721 47.2048 18.8002 46.97 18.8825 46.7046C19.0625 46.1221 18.9771 45.5182 18.6263 44.899L20.7888 45.57L20.7949 45.7774C20.8071 46.0885 20.801 46.3722 20.7705 46.6284C20.74 46.8846 20.6912 47.1316 20.618 47.3665C20.4685 47.8514 20.2306 48.2876 19.9104 48.6749C19.5901 49.0623 19.2089 49.3734 18.7727 49.6082C18.3366 49.8431 17.8547 49.9925 17.3362 50.0566C16.8146 50.1206 16.2839 50.0688 15.7441 49.901C15.2042 49.7333 14.7376 49.4801 14.3502 49.1385C13.9629 48.7969 13.6579 48.4065 13.4352 47.9673C13.2126 47.5281 13.0814 47.0554 13.0357 46.5521C12.9899 46.0489 13.0448 45.5487 13.1973 45.0607C13.2827 44.7801 13.3986 44.5147 13.542 44.2616C13.6853 44.0084 13.8653 43.7553 14.0818 43.493L16.2626 44.1701L16.2656 44.167Z" fill="black"/>
<path d="M18.1658 40.8029L19.4132 38.3385L16.8787 37.0575L17.7418 35.3495L24.3085 38.6709L23.4453 40.3789L20.7369 39.0095L19.4895 41.4739L22.1979 42.8433L21.3347 44.5513L14.7681 41.2299L15.6312 39.5219L18.1658 40.8029Z" fill="black"/>
<path d="M21.9814 29.1977L26.3215 31.5126L23.912 27.1298L24.949 26.0165L29.4905 28.1149L26.8797 23.9456L28.243 22.4816L32.1287 29.1062L30.7959 30.5336L26.6906 28.6792L28.8256 32.6442L27.4958 34.0716L20.615 30.6586L21.9783 29.1946L21.9814 29.1977Z" fill="black"/>
<path d="M31.5279 24.6989C31.2198 24.2475 31.0155 23.7717 30.9148 23.2685C30.8142 22.7652 30.8111 22.2681 30.9087 21.774C31.0063 21.2829 31.2015 20.8132 31.5004 20.3679C31.7993 19.9226 32.1958 19.5322 32.6899 19.1937C33.1779 18.8582 33.6842 18.6325 34.2119 18.5105C34.7365 18.3915 35.2489 18.3732 35.746 18.4586C36.2432 18.544 36.7068 18.724 37.1399 18.9985C37.573 19.273 37.9451 19.6359 38.2531 20.0873C38.5612 20.5387 38.7655 21.0145 38.8662 21.5178C38.9668 22.021 38.9668 22.5182 38.8662 23.0123C38.7686 23.5064 38.5673 23.9761 38.2653 24.4244C37.9634 24.8728 37.5699 25.2632 37.0819 25.5956C36.5878 25.9342 36.0785 26.1629 35.5569 26.2788C35.0354 26.3978 34.526 26.413 34.0319 26.3246C33.5378 26.2361 33.0742 26.0562 32.6411 25.7817C32.208 25.5072 31.8359 25.1442 31.5279 24.6928V24.6989ZM33.1779 23.5674C33.3426 23.8083 33.5409 24.0005 33.7727 24.1408C34.0045 24.2811 34.2485 24.3756 34.5077 24.4183C34.767 24.461 35.0262 24.4549 35.2916 24.397C35.5539 24.339 35.8009 24.2292 36.0327 24.0706C36.2645 23.912 36.4536 23.7199 36.6031 23.4972C36.7525 23.2715 36.8562 23.0306 36.9111 22.7713C36.966 22.5121 36.9691 22.2498 36.9203 21.9844C36.8715 21.7191 36.7647 21.4629 36.6 21.2219C36.4353 20.981 36.2371 20.7888 36.0053 20.6485C35.7735 20.5082 35.5295 20.4167 35.2672 20.374C35.0049 20.3313 34.7426 20.3405 34.4803 20.3984C34.218 20.4564 33.9679 20.5662 33.7391 20.7217C33.5073 20.8803 33.3182 21.0725 33.1688 21.2982C33.0193 21.5239 32.9187 21.7648 32.8668 22.021C32.815 22.2772 32.8119 22.5395 32.8607 22.8049C32.9095 23.0702 33.0163 23.3264 33.181 23.5674H33.1779Z" fill="black"/>
<path d="M46.6711 20.313L44.5025 21.2951L41.6721 19.4681L42.8372 22.0484L41.0957 22.8353L38.064 16.1314L40.7754 14.9053C41.1475 14.7376 41.4983 14.643 41.8277 14.6278C42.1571 14.6125 42.4529 14.6583 42.7213 14.765C42.9867 14.8748 43.2246 15.0304 43.4289 15.2378C43.6333 15.4452 43.801 15.6922 43.9291 15.9759C44.1609 16.4852 44.225 16.9549 44.1213 17.3819C44.0176 17.8089 43.7522 18.1902 43.3222 18.5196L46.6711 20.316V20.313ZM41.1628 18.3366L41.4922 18.1871C41.8368 18.0316 42.0686 17.8425 42.1876 17.6168C42.3065 17.3911 42.3065 17.144 42.1876 16.8787C42.0656 16.6133 41.8826 16.4486 41.6355 16.3907C41.3885 16.3327 41.0926 16.3785 40.748 16.534L40.4186 16.6835L41.1658 18.3366H41.1628Z" fill="black"/>
<path d="M47.7965 15.5245L49.2574 11.9865L51.5388 11.3704L49.6295 15.494L53.7196 18.4037L51.3253 19.0503L48.0923 16.6164L48.925 19.6969L47.0767 20.1941L45.1582 13.0906L47.0065 12.5935L47.7965 15.5245Z" fill="black"/>
<path d="M57.7031 12.2366L55.4461 12.5081L55.5925 13.7281L57.7244 13.4719L57.9196 15.0792L55.7877 15.3354L55.9402 16.5951L58.1972 16.3236L58.3924 17.931L54.2352 18.4312L53.3538 11.1264L57.5109 10.6262L57.7061 12.2336L57.7031 12.2366Z" fill="black"/>
<path d="M65.5353 17.9432L63.1532 17.9035L61.3751 15.0426L61.3293 17.873L59.417 17.8425L59.5359 10.4859L62.5127 10.5347C62.9214 10.5408 63.2783 10.6079 63.5833 10.733C63.8883 10.858 64.1353 11.0258 64.3305 11.2362C64.5257 11.4467 64.6721 11.6907 64.7667 11.9652C64.8643 12.2397 64.91 12.5325 64.9039 12.8466C64.8948 13.4048 64.7514 13.8562 64.4769 14.2008C64.2024 14.5455 63.7998 14.7742 63.2691 14.8901L65.5322 17.9432H65.5353ZM61.3934 13.8074L61.7533 13.8135C62.1315 13.8196 62.4212 13.7464 62.6256 13.5939C62.8299 13.4414 62.9336 13.2187 62.9397 12.9259C62.9458 12.6331 62.8482 12.4074 62.6469 12.2488C62.4487 12.0902 62.1589 12.0079 61.7807 12.0018L61.4208 11.9957L61.3903 13.8104L61.3934 13.8074Z" fill="black"/>
<path d="M70.8392 13.3071C70.6623 13.1058 70.4763 12.9503 70.2841 12.8344C70.092 12.7215 69.8998 12.6483 69.7077 12.6178C69.4637 12.5782 69.2563 12.6026 69.0824 12.6941C68.9086 12.7856 68.8079 12.9228 68.7774 13.1089C68.7561 13.237 68.7774 13.3498 68.8415 13.4444C68.9055 13.5389 68.994 13.6304 69.1099 13.7097C69.2258 13.7921 69.3569 13.8683 69.5064 13.9385C69.6558 14.0086 69.8053 14.0818 69.9486 14.1581C70.5312 14.4631 70.9368 14.8108 71.1686 15.2012C71.4004 15.5916 71.4675 16.0643 71.3791 16.6164C71.3181 16.9885 71.2022 17.3148 71.0253 17.5954C70.8514 17.876 70.6257 18.1048 70.3482 18.2817C70.0737 18.4586 69.7504 18.5775 69.3813 18.6385C69.0123 18.6995 68.6066 18.6965 68.1613 18.6233C67.2433 18.4738 66.4381 18.0621 65.7427 17.388L66.801 15.9972C67.042 16.2931 67.2921 16.5249 67.5483 16.6926C67.8045 16.8604 68.0668 16.9641 68.3382 17.0098C68.6463 17.0586 68.8872 17.0281 69.0611 16.9092C69.2349 16.7933 69.3356 16.6438 69.3661 16.4639C69.3844 16.3541 69.3813 16.2565 69.3539 16.1711C69.3295 16.0857 69.2776 16.0003 69.1983 15.9179C69.119 15.8356 69.0123 15.7532 68.8781 15.6739C68.7439 15.5916 68.5792 15.5001 68.384 15.3964C68.1522 15.2805 67.9265 15.1554 67.7069 15.0243C67.4873 14.8931 67.2982 14.7345 67.1426 14.5515C66.984 14.3685 66.8681 14.1489 66.7949 13.8958C66.7217 13.6426 66.7126 13.3376 66.7705 12.9777C66.8285 12.6178 66.9413 12.3037 67.1091 12.0292C67.2768 11.7577 67.4842 11.532 67.7343 11.3612C67.9844 11.1874 68.2742 11.0684 68.6036 11.0044C68.933 10.9403 69.2929 10.9373 69.6772 11.0044C70.0371 11.0623 70.4031 11.1752 70.7813 11.3368C71.1595 11.4985 71.5072 11.7089 71.8366 11.959L70.8453 13.3102L70.8392 13.3071Z" fill="black"/>
<path d="M81.5173 17.324C81.3038 16.6591 80.892 16.2077 80.2881 15.9698C80.0228 15.8661 79.7544 15.8173 79.4921 15.8234C79.2267 15.8326 78.9797 15.8875 78.7509 15.9881C78.5222 16.0918 78.3148 16.2382 78.1318 16.4304C77.9488 16.6256 77.8024 16.8543 77.6987 17.1197C77.5919 17.3911 77.5401 17.6626 77.5431 17.9279C77.5462 18.1963 77.598 18.4464 77.6987 18.6813C77.7993 18.9161 77.9427 19.1266 78.1287 19.3096C78.3148 19.4956 78.5374 19.639 78.7997 19.7396C79.3701 19.9623 79.977 19.9226 80.6206 19.6146L79.794 21.7221L79.5866 21.713C79.2755 21.7038 78.9949 21.6733 78.7387 21.6276C78.4856 21.5818 78.2416 21.5117 78.0128 21.4202C77.5401 21.2341 77.1222 20.9688 76.7593 20.618C76.3963 20.2703 76.1127 19.8677 75.9114 19.4133C75.707 18.9588 75.5942 18.4708 75.5698 17.9462C75.5454 17.4216 75.6369 16.897 75.8412 16.3694C76.0486 15.8417 76.3353 15.3995 76.7044 15.0365C77.0734 14.6736 77.4852 14.3991 77.9396 14.213C78.3941 14.0239 78.876 13.9263 79.3823 13.9202C79.8886 13.9141 80.3796 14.0026 80.8585 14.1917C81.1299 14.2984 81.3892 14.4326 81.6271 14.5943C81.868 14.7559 82.109 14.9542 82.353 15.189L81.5173 17.3149V17.324Z" fill="black"/>
<path d="M82.2218 18.91C82.5054 18.4433 82.8562 18.059 83.274 17.7632C83.6919 17.4643 84.1433 17.2599 84.6343 17.144C85.1223 17.0281 85.6317 17.0159 86.1593 17.1074C86.687 17.1959 87.2086 17.3972 87.7179 17.7083C88.2242 18.0163 88.639 18.3854 88.9653 18.8154C89.2886 19.2455 89.5143 19.703 89.6424 20.191C89.7675 20.679 89.795 21.1761 89.7218 21.6855C89.6486 22.1948 89.4716 22.6798 89.1849 23.1464C88.8982 23.6131 88.5505 23.9974 88.1327 24.2932C87.7148 24.5921 87.2604 24.7965 86.7693 24.9093C86.2783 25.0222 85.7659 25.0313 85.2352 24.9429C84.7045 24.8514 84.186 24.6531 83.6797 24.3451C83.1673 24.034 82.7525 23.6649 82.4292 23.2349C82.1059 22.8079 81.8833 22.3504 81.7613 21.8624C81.6393 21.3774 81.6118 20.8803 81.685 20.3709C81.7582 19.8646 81.9351 19.3766 82.2218 18.91ZM83.9298 19.95C83.7773 20.2001 83.6858 20.4594 83.6492 20.7278C83.6157 20.9962 83.6309 21.2585 83.698 21.5116C83.7651 21.7648 83.878 21.9996 84.0396 22.2162C84.2013 22.4327 84.4026 22.6127 84.6405 22.7591C84.8784 22.9055 85.1315 23 85.3999 23.0427C85.6652 23.0854 85.9275 23.0824 86.1868 23.0244C86.446 22.9695 86.687 22.8628 86.9097 22.7103C87.1323 22.5578 87.3214 22.3534 87.4739 22.1033C87.6264 21.8532 87.7179 21.594 87.7545 21.3256C87.788 21.0572 87.7697 20.7949 87.7026 20.5387C87.6325 20.2825 87.5166 20.0476 87.358 19.8311C87.1964 19.6145 86.9951 19.4346 86.7572 19.2882C86.5193 19.1418 86.2661 19.0472 85.9977 19.0045C85.7323 18.9618 85.4701 18.9679 85.2139 19.0259C84.9577 19.0838 84.7197 19.1875 84.494 19.3431C84.2714 19.4956 84.0823 19.6999 83.9298 19.95Z" fill="black"/>
<path d="M91.8659 28.6974L89.8194 26.8857L88.6421 27.5506L87.114 26.1995L94.0894 22.5456L95.654 23.9303L92.8724 31.296L91.3444 29.9449L91.8629 28.6974H91.8659ZM92.4485 27.2731L93.4275 24.8697L91.1614 26.1354L92.4485 27.2731Z" fill="black"/>
<path d="M99.9576 28.4382L95.5839 32.1531L97.0693 33.9007L95.834 34.9499L93.1104 31.7444L98.7193 26.9803L99.9576 28.4382Z" fill="black"/>
<path d="M103.343 32.9064L97.3132 37.1246L96.2183 35.5569L102.248 31.3418L103.343 32.9095V32.9064Z" fill="black"/>
<path d="M104.392 37.7682L99.3995 40.5986L98.457 38.9333L103.45 36.1029L102.675 34.7365L104.084 33.9374L106.576 38.3355L105.167 39.1346L104.392 37.7682Z" fill="black"/>
<path d="M107.866 41.2513L101.15 44.2586L100.369 42.514L107.085 39.5067L107.866 41.2513Z" fill="black"/>
<path d="M105.179 43.9688C105.704 43.8163 106.219 43.7706 106.732 43.8316C107.241 43.8926 107.714 44.0451 108.153 44.2921C108.589 44.5361 108.973 44.8716 109.303 45.2925C109.632 45.7165 109.882 46.2136 110.05 46.787C110.215 47.3543 110.273 47.9094 110.224 48.4432C110.175 48.98 110.032 49.471 109.794 49.9163C109.559 50.3616 109.242 50.7459 108.845 51.0723C108.449 51.3986 107.988 51.6365 107.464 51.789C106.939 51.9415 106.421 51.9873 105.911 51.9263C105.402 51.8653 104.929 51.7097 104.49 51.4627C104.051 51.2126 103.666 50.8771 103.337 50.4531C103.008 50.0261 102.758 49.532 102.593 48.9617C102.425 48.3883 102.367 47.8332 102.419 47.2994C102.471 46.7657 102.614 46.2777 102.852 45.8354C103.09 45.3932 103.404 45.0089 103.804 44.6856C104.2 44.3592 104.661 44.1213 105.185 43.9658L105.179 43.9688ZM105.74 45.8903C105.46 45.9727 105.216 46.1008 105.008 46.2777C104.801 46.4546 104.636 46.6559 104.514 46.8907C104.392 47.1225 104.319 47.3726 104.292 47.641C104.264 47.9094 104.292 48.1778 104.368 48.4462C104.444 48.7146 104.569 48.9556 104.737 49.166C104.905 49.3795 105.103 49.5503 105.332 49.6845C105.561 49.8187 105.808 49.9041 106.076 49.9407C106.344 49.9773 106.619 49.956 106.899 49.8736C107.18 49.7913 107.424 49.6632 107.631 49.4863C107.839 49.3094 108.001 49.105 108.123 48.8702C108.245 48.6353 108.318 48.3822 108.345 48.1138C108.373 47.8454 108.345 47.577 108.269 47.3086C108.19 47.0402 108.068 46.7992 107.9 46.5888C107.732 46.3753 107.537 46.2045 107.308 46.0764C107.079 45.9452 106.832 45.8629 106.564 45.8263C106.296 45.7897 106.021 45.811 105.74 45.8934V45.8903Z" fill="black"/>
<path d="M104.035 53.5976L111.365 52.9419L111.535 54.8481L107.369 58.7674L111.849 58.3678L112.02 60.2619L104.691 60.9176L104.52 59.0236L108.687 55.1043L104.206 55.5069L104.035 53.6007V53.5976Z" fill="black"/>
<path d="M24.0706 102.962L23.061 102.276L34.1203 86.3912L35.1299 87.0775L24.0706 102.962Z" fill="black"/>
<path d="M115.452 74.3956H95.2974V75.6156H115.452V74.3956Z" fill="black"/>
<path d="M50.0687 40.1136H30.1003V41.3336H50.0687V40.1136Z" fill="black"/>
<path d="M60.7774 41.4556H54.7292V40.2356H60.0789L69.1161 24.7233L70.1714 25.3394L60.7774 41.4556Z" fill="black"/>
<path d="M52.152 43.5693C50.563 43.5693 49.2698 42.276 49.2698 40.687C49.2698 39.0979 50.563 37.8047 52.152 37.8047C53.7411 37.8047 55.0343 39.0979 55.0343 40.687C55.0343 42.276 53.7411 43.5693 52.152 43.5693ZM52.152 39.0247C51.234 39.0247 50.4898 39.7689 50.4898 40.687C50.4898 41.605 51.234 42.3493 52.152 42.3493C53.0701 42.3493 53.8143 41.605 53.8143 40.687C53.8143 39.7689 53.0701 39.0247 52.152 39.0247Z" fill="black"/>
<path d="M68.2651 42.0321C66.676 42.0321 65.3828 40.7389 65.3828 39.1498C65.3828 37.5608 66.676 36.2676 68.2651 36.2676C69.8541 36.2676 71.1473 37.5608 71.1473 39.1498C71.1473 40.7389 69.8541 42.0321 68.2651 42.0321ZM68.2651 37.4876C67.347 37.4876 66.6028 38.2318 66.6028 39.1498C66.6028 40.0679 67.347 40.8121 68.2651 40.8121C69.1831 40.8121 69.9273 40.0679 69.9273 39.1498C69.9273 38.2318 69.1831 37.4876 68.2651 37.4876Z" fill="black"/>
<path d="M74.9069 27.0545L69.1597 36.5781L70.2042 37.2084L75.9514 27.6849L74.9069 27.0545Z" fill="black"/>
<path d="M59.35 33.3396C57.761 33.3396 56.4678 32.0464 56.4678 30.4573C56.4678 28.8683 57.761 27.5751 59.35 27.5751C60.9391 27.5751 62.2323 28.8683 62.2323 30.4573C62.2323 32.0464 60.9391 33.3396 59.35 33.3396ZM59.35 28.7951C58.435 28.7951 57.6878 29.5393 57.6878 30.4573C57.6878 31.3754 58.432 32.1196 59.35 32.1196C60.2681 32.1196 61.0123 31.3754 61.0123 30.4573C61.0123 29.5393 60.2681 28.7951 59.35 28.7951Z" fill="black"/>
<path d="M62.643 23.925L60.0183 28.183L61.0569 28.8232L63.6816 24.5652L62.643 23.925Z" fill="black"/>
<path d="M114.186 79.7361H71.675V80.9561H114.186V79.7361Z" fill="black"/>
<path d="M41.6082 113.759L40.5681 113.124L60.9726 79.6141H67.0116V80.8341H61.6558L41.6082 113.759Z" fill="black"/>
<path d="M69.5888 83.2619C67.9997 83.2619 66.7065 81.9687 66.7065 80.3797C66.7065 78.7906 67.9997 77.4974 69.5888 77.4974C71.1778 77.4974 72.471 78.7906 72.471 80.3797C72.471 81.9687 71.1778 83.2619 69.5888 83.2619ZM69.5888 78.7174C68.6738 78.7174 67.9265 79.4647 67.9265 80.3797C67.9265 81.2947 68.6707 82.0419 69.5888 82.0419C70.5068 82.0419 71.251 81.2977 71.251 80.3797C71.251 79.4616 70.5068 78.7174 69.5888 78.7174Z" fill="black"/>
<path d="M53.0851 84.5063C51.4961 84.5063 50.2029 83.2131 50.2029 81.6241C50.2029 80.035 51.4961 78.7418 53.0851 78.7418C54.6742 78.7418 55.9674 80.035 55.9674 81.6241C55.9674 83.2131 54.6742 84.5063 53.0851 84.5063ZM53.0851 79.9618C52.1671 79.9618 51.4229 80.7091 51.4229 81.6241C51.4229 82.5391 52.1671 83.2863 53.0851 83.2863C54.0032 83.2863 54.7474 82.5391 54.7474 81.6241C54.7474 80.7091 54.0032 79.9618 53.0851 79.9618Z" fill="black"/>
<path d="M35.6973 111.063L34.6633 110.413L51.2492 83.756L52.2832 84.4057L35.6973 111.063Z" fill="black"/>
<path d="M62.3937 93.4947C60.8047 93.4947 59.5115 92.2015 59.5115 90.6125C59.5115 89.0234 60.8047 87.7302 62.3937 87.7302C63.9828 87.7302 65.276 89.0234 65.276 90.6125C65.276 92.2015 63.9828 93.4947 62.3937 93.4947ZM62.3937 88.9502C61.4757 88.9502 60.7315 89.6944 60.7315 90.6125C60.7315 91.5305 61.4757 92.2747 62.3937 92.2747C63.3118 92.2747 64.056 91.5275 64.056 90.6125C64.056 89.6975 63.3118 88.9502 62.3937 88.9502Z" fill="black"/>
<path d="M60.684 92.2526L47.2593 114.684L48.3061 115.31L61.7309 92.8791L60.684 92.2526Z" fill="black"/>
<path d="M34.651 100.555C34.6083 100.555 34.5656 100.555 34.5198 100.555C32.9308 100.485 31.6986 99.1342 31.7687 97.5482C31.8389 95.9591 33.187 94.733 34.776 94.7971C36.3651 94.8672 37.5973 96.2184 37.5271 97.8044C37.457 99.3477 36.179 100.559 34.6479 100.559L34.651 100.555ZM34.6479 96.011C34.2331 96.011 33.8366 96.1635 33.5286 96.4471C33.2022 96.746 33.0101 97.1547 32.9887 97.6C32.9704 98.0453 33.1229 98.4693 33.4218 98.7956C33.7207 99.122 34.1294 99.3141 34.5747 99.3355C35.017 99.3568 35.444 99.2013 35.7703 98.9024C36.0967 98.6035 36.2888 98.1948 36.3102 97.7495C36.3285 97.3042 36.176 96.8802 35.8771 96.5539C35.5782 96.2275 35.1695 96.0354 34.7242 96.014C34.6998 96.014 34.6723 96.014 34.6479 96.014V96.011Z" fill="black"/>
<path d="M32.9607 99.2244L28.3423 106.178L29.3586 106.853L33.977 99.8994L32.9607 99.2244Z" fill="black"/>
<path d="M60.9999 98.82C40.1471 98.82 23.1799 81.8528 23.1799 61C23.1799 40.1471 40.1471 23.18 60.9999 23.18C81.8528 23.18 98.8199 40.1471 98.8199 61C98.8199 81.8528 81.8528 98.82 60.9999 98.82ZM60.9999 24.4C40.8181 24.4 24.3999 40.8181 24.3999 61C24.3999 81.1818 40.8181 97.6 60.9999 97.6C81.1818 97.6 97.5999 81.1818 97.5999 61C97.5999 40.8181 81.1818 24.4 60.9999 24.4Z" fill="black"/>
</svg>
